<svg width="32" height="32" viewBox="0 0 32 32" fill="none" xmlns="http://www.w3.org/2000/svg">
    <path d="M4.00033 9.33366C3.62255 9.33366 3.30566 9.20566 3.04966 8.94966C2.79366 8.69366 2.66611 8.37722 2.667 8.00033V4.00033C2.667 3.62255 2.795 3.30566 3.051 3.04966C3.307 2.79366 3.62344 2.66611 4.00033 2.667H8.00033C8.37811 2.667 8.695 2.795 8.951 3.051C9.207 3.307 9.33455 3.62344 9.33366 4.00033C9.33366 4.37811 9.20566 4.695 8.94966 4.951C8.69366 5.207 8.37722 5.33455 8.00033 5.33366H5.33366V8.00033C5.33366 8.37811 5.20566 8.695 4.94966 8.951C4.69366 9.207 4.37722 9.33455 4.00033 9.33366ZM4.00033 29.3337C3.62255 29.3337 3.30566 29.2057 3.04966 28.9497C2.79366 28.6937 2.66611 28.3772 2.667 28.0003V24.0003C2.667 23.6226 2.795 23.3057 3.051 23.0497C3.307 22.7937 3.62344 22.6661 4.00033 22.667C4.37811 22.667 4.695 22.795 4.951 23.051C5.207 23.307 5.33455 23.6234 5.33366 24.0003V26.667H8.00033C8.37811 26.667 8.695 26.795 8.951 27.051C9.207 27.307 9.33455 27.6234 9.33366 28.0003C9.33366 28.3781 9.20566 28.695 8.94966 28.951C8.69366 29.207 8.37722 29.3346 8.00033 29.3337H4.00033ZM24.0003 29.3337C23.6226 29.3337 23.3057 29.2057 23.0497 28.9497C22.7937 28.6937 22.6661 28.3772 22.667 28.0003C22.667 27.6226 22.795 27.3057 23.051 27.0497C23.307 26.7937 23.6234 26.6661 24.0003 26.667H26.667V24.0003C26.667 23.6226 26.795 23.3057 27.051 23.0497C27.307 22.7937 27.6234 22.6661 28.0003 22.667C28.3781 22.667 28.695 22.795 28.951 23.051C29.207 23.307 29.3346 23.6234 29.3337 24.0003V28.0003C29.3337 28.3781 29.2057 28.695 28.9497 28.951C28.6937 29.207 28.3772 29.3346 28.0003 29.3337H24.0003ZM28.0003 9.33366C27.6226 9.33366 27.3057 9.20566 27.0497 8.94966C26.7937 8.69366 26.6661 8.37722 26.667 8.00033V5.33366H24.0003C23.6226 5.33366 23.3057 5.20566 23.0497 4.94966C22.7937 4.69366 22.6661 4.37722 22.667 4.00033C22.667 3.62255 22.795 3.30566 23.051 3.04966C23.307 2.79366 23.6234 2.66611 24.0003 2.667H28.0003C28.3781 2.667 28.695 2.795 28.951 3.051C29.207 3.307 29.3346 3.62344 29.3337 4.00033V8.00033C29.3337 8.37811 29.2057 8.695 28.9497 8.951C28.6937 9.207 28.3772 9.33455 28.0003 9.33366ZM23.3337 23.3337H25.3337V25.3337H23.3337V23.3337ZM23.3337 19.3337H25.3337V21.3337H23.3337V19.3337ZM21.3337 21.3337H23.3337V23.3337H21.3337V21.3337ZM19.3337 23.3337H21.3337V25.3337H19.3337V23.3337ZM17.3337 21.3337H19.3337V23.3337H17.3337V21.3337ZM21.3337 17.3337H23.3337V19.3337H21.3337V17.3337ZM19.3337 19.3337H21.3337V21.3337H19.3337V19.3337ZM17.3337 17.3337H19.3337V19.3337H17.3337V17.3337ZM25.3337 6.667V14.667H17.3337V6.667H25.3337ZM14.667 17.3337V25.3337H6.667V17.3337H14.667ZM14.667 6.667V14.667H6.667V6.667H14.667ZM12.667 23.3337V19.3337H8.667V23.3337H12.667ZM12.667 12.667V8.667H8.667V12.667H12.667ZM23.3337 12.667V8.667H19.3337V12.667H23.3337Z"
          fill="#0880DF"/>
</svg>
