<svg width="248" height="248" viewBox="0 0 248 248" fill="none" xmlns="http://www.w3.org/2000/svg">
<path d="M24.7998 135.418C24.7998 161.727 35.2512 186.959 53.8548 205.563C72.4584 224.166 97.6903 234.618 124 234.618C150.309 234.618 175.541 224.166 194.145 205.563C212.748 186.959 223.2 161.727 223.2 135.418C223.2 109.108 212.748 83.8764 194.145 65.2728C175.541 46.6692 150.309 36.2178 124 36.2178C97.6903 36.2178 72.4584 46.6692 53.8548 65.2728C35.2512 83.8764 24.7998 109.108 24.7998 135.418Z" fill="#D9EDFF"/>
<path d="M190.397 13.3922H63.917C62.0094 13.3841 60.119 13.7517 58.3536 14.4741C56.5882 15.1966 54.9823 16.2597 53.6278 17.6027C52.2732 18.9458 51.1964 20.5425 50.459 22.3017C49.7215 24.0609 49.3377 25.9481 49.3296 27.8556V200.721C59.2064 212.017 71.5167 220.924 85.334 226.774C99.1513 232.623 114.116 235.262 129.1 234.492C144.085 233.721 158.699 229.562 171.844 222.326C184.989 215.09 196.32 204.967 204.987 192.719V27.8457C204.967 23.9948 203.419 20.3093 200.684 17.5991C197.948 14.8889 194.248 13.3757 190.397 13.3922Z" fill="white"/>
<path d="M204.987 192.719V27.8457C204.967 23.9948 203.419 20.3093 200.684 17.5991C197.948 14.8889 194.248 13.3757 190.397 13.3922H63.9169C62.0094 13.3841 60.119 13.7517 58.3536 14.4741C56.5882 15.1966 54.9823 16.2597 53.6278 17.6027C52.2732 18.9458 51.1964 20.5425 50.459 22.3017C49.7215 24.0609 49.3377 25.9481 49.3296 27.8556V200.721" stroke="#020064" stroke-linecap="round" stroke-linejoin="round"/>
<path d="M190.397 57.5733C190.396 57.1144 190.304 56.6603 190.127 56.2368C189.95 55.8134 189.692 55.4289 189.367 55.1053C189.041 54.7818 188.655 54.5255 188.231 54.3511C187.806 54.1767 187.352 54.0876 186.893 54.0889H67.4212C66.9624 54.0876 66.5077 54.1767 66.0833 54.3511C65.6588 54.5255 65.2729 54.7818 64.9475 55.1053C64.6221 55.4289 64.3636 55.8134 64.1868 56.2368C64.01 56.6603 63.9183 57.1144 63.917 57.5733V214.359C82.2745 228.331 104.928 235.468 127.979 234.542C151.031 233.616 173.038 224.685 190.216 209.285L190.397 57.5733Z" fill="#B0D9FF"/>
<path d="M190.216 209.285L190.399 57.5733C190.398 57.1142 190.306 56.6599 190.129 56.2363C189.952 55.8126 189.694 55.428 189.368 55.1045C189.042 54.7809 188.656 54.5246 188.231 54.3504C187.807 54.1761 187.352 54.0873 186.893 54.0889H67.4212C66.9624 54.0876 66.5077 54.1767 66.0833 54.3511C65.6588 54.5255 65.2729 54.7818 64.9475 55.1053C64.6221 55.4289 64.3636 55.8134 64.1868 56.2368C64.01 56.6603 63.9183 57.1144 63.917 57.5733V214.359" stroke="#020064" stroke-linecap="round" stroke-linejoin="round"/>
<path d="M101.385 31.4639C101.385 32.1216 101.646 32.7524 102.111 33.2175C102.576 33.6826 103.207 33.9439 103.865 33.9439C104.523 33.9439 105.153 33.6826 105.618 33.2175C106.083 32.7524 106.345 32.1216 106.345 31.4639C106.345 30.8061 106.083 30.1754 105.618 29.7103C105.153 29.2452 104.523 28.9839 103.865 28.9839C103.207 28.9839 102.576 29.2452 102.111 29.7103C101.646 30.1754 101.385 30.8061 101.385 31.4639Z" fill="#020064"/>
<path d="M116.629 31.4639H149.455" stroke="#020064" stroke-linecap="round" stroke-linejoin="round"/>
<path d="M79.9678 168.494H175.034V193.294H79.9678V168.494Z" fill="white" stroke="#020064" stroke-linecap="round" stroke-linejoin="round"/>
<path d="M100.237 175.108C100.237 175.69 100.018 176.638 99.9439 177.402C100.966 176.675 101.695 175.914 102.533 175.914C103.06 175.954 103.551 176.197 103.903 176.59C104.256 176.984 104.443 177.498 104.425 178.027C104.425 179.41 102.642 179.703 101.514 180.286C102.642 180.831 104.425 181.124 104.425 182.518C104.444 183.05 104.258 183.569 103.907 183.969C103.555 184.369 103.063 184.619 102.533 184.668C101.695 184.668 100.966 183.867 99.9439 183.138C100.018 183.904 100.237 184.849 100.237 185.434C100.189 185.895 99.9725 186.321 99.6289 186.631C99.2854 186.94 98.8392 187.112 98.3765 187.112C97.9139 187.112 97.4677 186.94 97.1242 186.631C96.7806 186.321 96.5641 185.895 96.5165 185.434C96.5165 184.849 96.7373 183.904 96.8092 183.138C95.7527 183.867 94.9889 184.668 94.1853 184.668C93.6598 184.622 93.1737 184.37 92.8328 183.967C92.4919 183.565 92.3238 183.044 92.365 182.518C92.365 181.134 94.1506 180.841 95.2443 180.286C94.1506 179.703 92.365 179.41 92.365 178.027C92.3454 177.768 92.377 177.509 92.4579 177.262C92.5388 177.016 92.6675 176.789 92.8366 176.592C93.0057 176.396 93.2119 176.235 93.4434 176.119C93.6748 176.002 93.9269 175.932 94.1853 175.914C94.9889 175.914 95.7527 176.68 96.8092 177.402C96.7373 176.638 96.5165 175.69 96.5165 175.108C96.5581 174.643 96.7721 174.211 97.1163 173.896C97.4605 173.581 97.9101 173.407 98.3765 173.407C98.843 173.407 99.2925 173.581 99.6368 173.896C99.981 174.211 100.195 174.643 100.237 175.108Z" fill="#020064"/>
<path d="M119.64 175.108C119.64 175.69 119.419 176.638 119.348 177.402C120.367 176.675 121.084 175.914 121.934 175.914C122.461 175.954 122.953 176.196 123.306 176.589C123.659 176.983 123.846 177.498 123.829 178.027C123.829 179.41 122.043 179.703 120.915 180.286C122.043 180.831 123.829 181.124 123.829 182.518C123.848 183.051 123.662 183.57 123.309 183.97C122.957 184.37 122.465 184.62 121.934 184.668C121.096 184.668 120.367 183.867 119.348 183.138C119.419 183.904 119.64 184.849 119.64 185.434C119.593 185.895 119.376 186.321 119.033 186.631C118.689 186.94 118.243 187.112 117.78 187.112C117.318 187.112 116.871 186.94 116.528 186.631C116.184 186.321 115.968 185.895 115.92 185.434C115.92 184.849 116.138 183.904 116.213 183.138C115.156 183.867 114.39 184.668 113.589 184.668C113.063 184.622 112.577 184.37 112.236 183.968C111.894 183.565 111.726 183.044 111.766 182.518C111.766 181.134 113.552 180.841 114.645 180.286C113.552 179.703 111.766 179.41 111.766 178.027C111.747 177.768 111.778 177.508 111.859 177.262C111.94 177.016 112.069 176.788 112.239 176.592C112.408 176.395 112.615 176.234 112.846 176.118C113.078 176.002 113.33 175.932 113.589 175.914C114.39 175.914 115.156 176.68 116.213 177.402C116.138 176.638 115.92 175.69 115.92 175.108C115.962 174.643 116.176 174.211 116.52 173.896C116.864 173.581 117.314 173.407 117.78 173.407C118.247 173.407 118.696 173.581 119.04 173.896C119.385 174.211 119.599 174.643 119.64 175.108Z" fill="#020064"/>
<path d="M139.041 175.108C139.041 175.69 138.823 176.638 138.749 177.402C139.77 176.675 140.499 175.914 141.338 175.914C141.865 175.954 142.355 176.197 142.708 176.59C143.06 176.984 143.247 177.498 143.23 178.027C143.23 179.41 141.447 179.703 140.318 180.286C141.447 180.831 143.23 181.124 143.23 182.518C143.249 183.05 143.063 183.569 142.711 183.969C142.359 184.369 141.868 184.619 141.338 184.668C140.499 184.668 139.77 183.867 138.749 183.138C138.823 183.904 139.041 184.849 139.041 185.434C138.994 185.895 138.777 186.321 138.434 186.631C138.09 186.94 137.644 187.112 137.181 187.112C136.719 187.112 136.272 186.94 135.929 186.631C135.585 186.321 135.369 185.895 135.321 185.434C135.321 184.849 135.542 183.904 135.614 183.138C134.557 183.867 133.794 184.668 132.99 184.668C132.464 184.622 131.978 184.37 131.637 183.967C131.297 183.565 131.128 183.044 131.17 182.518C131.17 181.134 132.955 180.841 134.049 180.286C132.955 179.703 131.17 179.41 131.17 178.027C131.15 177.768 131.182 177.509 131.263 177.262C131.344 177.016 131.472 176.789 131.641 176.592C131.81 176.396 132.017 176.235 132.248 176.119C132.479 176.002 132.732 175.932 132.99 175.914C133.794 175.914 134.557 176.68 135.614 177.402C135.542 176.638 135.321 175.69 135.321 175.108C135.363 174.643 135.577 174.211 135.921 173.896C136.265 173.581 136.715 173.407 137.181 173.407C137.648 173.407 138.097 173.581 138.441 173.896C138.786 174.211 139 174.643 139.041 175.108Z" fill="#020064"/>
<path d="M158.445 175.108C158.445 175.69 158.224 176.638 158.152 177.402C159.172 176.675 159.888 175.914 160.739 175.914C161.266 175.954 161.758 176.196 162.111 176.589C162.464 176.983 162.651 177.498 162.634 178.027C162.634 179.41 160.848 179.703 159.72 180.286C160.848 180.831 162.634 181.124 162.634 182.518C162.652 183.051 162.466 183.57 162.114 183.97C161.762 184.37 161.27 184.62 160.739 184.668C159.901 184.668 159.172 183.867 158.152 183.138C158.224 183.904 158.445 184.849 158.445 185.434C158.397 185.895 158.181 186.321 157.837 186.631C157.494 186.94 157.047 187.112 156.585 187.112C156.122 187.112 155.676 186.94 155.332 186.631C154.989 186.321 154.772 185.895 154.725 185.434C154.725 184.849 154.943 183.904 155.018 183.138C153.961 183.867 153.195 184.668 152.394 184.668C151.868 184.622 151.382 184.37 151.04 183.968C150.699 183.565 150.53 183.044 150.571 182.518C150.571 181.134 152.356 180.841 153.45 180.286C152.356 179.703 150.571 179.41 150.571 178.027C150.551 177.768 150.583 177.508 150.664 177.262C150.745 177.016 150.874 176.788 151.043 176.592C151.213 176.395 151.419 176.234 151.651 176.118C151.883 176.002 152.135 175.932 152.394 175.914C153.195 175.914 153.961 176.68 155.018 177.402C154.943 176.638 154.725 175.69 154.725 175.108C154.766 174.643 154.98 174.211 155.325 173.896C155.669 173.581 156.118 173.407 156.585 173.407C157.051 173.407 157.501 173.581 157.845 173.896C158.189 174.211 158.403 174.643 158.445 175.108Z" fill="#020064"/>
<path d="M93.5752 114.11C93.5752 123.003 97.108 131.532 103.397 137.82C109.685 144.109 118.214 147.642 127.107 147.642C136.001 147.642 144.53 144.109 150.818 137.82C157.107 131.532 160.639 123.003 160.639 114.11C160.639 105.216 157.107 96.6874 150.818 90.399C144.53 84.1105 136.001 80.5776 127.107 80.5776C118.214 80.5776 109.685 84.1105 103.397 90.399C97.108 96.6874 93.5752 105.216 93.5752 114.11Z" fill="white" stroke="#020064" stroke-linecap="round" stroke-linejoin="round"/>
<path d="M116.312 113.336C116.281 114.772 116.538 116.2 117.066 117.536C117.594 118.872 118.384 120.089 119.389 121.115C120.393 122.142 121.593 122.957 122.917 123.514C124.242 124.071 125.664 124.358 127.1 124.358C128.537 124.358 129.959 124.071 131.283 123.514C132.607 122.957 133.807 122.142 134.811 121.115C135.816 120.089 136.606 118.872 137.134 117.536C137.663 116.2 137.919 114.772 137.888 113.336V107.94C137.828 105.118 136.664 102.433 134.648 100.459C132.631 98.4857 129.922 97.3804 127.1 97.3804C124.278 97.3804 121.569 98.4857 119.552 100.459C117.536 102.433 116.373 105.118 116.312 107.94V113.336Z" fill="white" stroke="#020064" stroke-linecap="round" stroke-linejoin="round"/>
<path d="M149.522 139.049C143.367 144.578 135.386 147.637 127.112 147.637C118.839 147.637 110.857 144.578 104.703 139.049C106.545 134.629 109.653 130.852 113.636 128.194C117.619 125.537 122.299 124.116 127.088 124.112C131.876 124.108 136.559 125.521 140.546 128.172C144.534 130.823 147.648 134.594 149.497 139.011" fill="#B0D9FF"/>
<path d="M149.522 139.049C143.367 144.578 135.386 147.637 127.112 147.637C118.839 147.637 110.857 144.578 104.703 139.049C106.545 134.629 109.653 130.852 113.636 128.194C117.619 125.537 122.299 124.116 127.088 124.112C131.876 124.108 136.559 125.521 140.546 128.172C144.534 130.823 147.648 134.594 149.497 139.011" stroke="#020064" stroke-linecap="round" stroke-linejoin="round"/>
<path d="M116.406 106.546C116.69 104.37 117.631 102.333 119.102 100.706C120.573 99.0788 122.505 97.9387 124.641 97.4376C126.777 96.9365 129.015 97.0983 131.056 97.9014C133.098 98.7046 134.846 100.111 136.068 101.933C133.514 104.408 130.337 106.145 126.875 106.957C123.412 107.769 119.794 107.627 116.406 106.546Z" fill="white" stroke="#020064" stroke-linecap="round" stroke-linejoin="round"/>
</svg>
