<svg width="248" height="248" viewBox="0 0 248 248" fill="none" xmlns="http://www.w3.org/2000/svg">
<path d="M20.1641 132.452C20.1641 158.761 30.6155 183.993 49.2191 202.597C67.8227 221.2 93.0546 231.652 119.364 231.652C145.674 231.652 170.905 221.2 189.509 202.597C208.113 183.993 218.564 158.761 218.564 132.452C218.564 106.142 208.113 80.9103 189.509 62.3067C170.905 43.7031 145.674 33.2517 119.364 33.2517C93.0546 33.2517 67.8227 43.7031 49.2191 62.3067C30.6155 80.9103 20.1641 106.142 20.1641 132.452Z" fill="#D9EDFF"/>
<path d="M150.998 188.976C150.998 191.779 149.884 194.467 147.903 196.449C145.921 198.431 143.233 199.545 140.43 199.546H85.6223C84.2349 199.545 82.861 199.272 81.5794 198.74C80.2977 198.209 79.1333 197.43 78.1526 196.449C77.172 195.467 76.3944 194.302 75.8641 193.02C75.3339 191.738 75.0615 190.364 75.0625 188.976V71.4414C75.0632 68.6392 76.1768 65.952 78.1585 63.9708C80.1401 61.9896 82.8276 60.8766 85.6298 60.8766H140.438C143.24 60.8772 145.928 61.9908 147.909 63.9724C149.891 65.954 151.004 68.6415 151.005 71.4439L150.998 188.976Z" fill="white"/>
<path d="M150.998 188.976C150.998 191.779 149.884 194.467 147.903 196.449C145.921 198.431 143.233 199.545 140.43 199.546H85.6223C84.2349 199.545 82.861 199.272 81.5794 198.74C80.2977 198.209 79.1333 197.43 78.1526 196.449C77.172 195.467 76.3944 194.302 75.8641 193.02C75.3339 191.738 75.0615 190.364 75.0625 188.976V71.4414C75.0632 68.6392 76.1768 65.952 78.1585 63.9708C80.1401 61.9896 82.8276 60.8766 85.6298 60.8766H140.438C143.24 60.8772 145.928 61.9908 147.909 63.9724C149.891 65.954 151.004 68.6415 151.005 71.4439L150.998 188.976Z" stroke="#020064" stroke-width="2.48" stroke-linecap="round" stroke-linejoin="round"/>
<path d="M81.667 80.6844H144.396V178.079H81.667V80.6844Z" fill="#B0D9FF"/>
<path d="M81.667 80.6844H144.396V178.079H81.667V80.6844Z" stroke="#020064" stroke-width="2.48" stroke-linecap="round" stroke-linejoin="round"/>
<path d="M109.728 70.7818L127.886 70.7793" stroke="#020064" stroke-width="2.48" stroke-linecap="round" stroke-linejoin="round"/>
<path d="M101.872 70.7792C101.872 71.185 101.752 71.5816 101.527 71.9189C101.301 72.2563 100.981 72.5192 100.606 72.6743C100.231 72.8295 99.8183 72.8699 99.4204 72.7906C99.0225 72.7113 98.6571 72.5157 98.3703 72.2286C98.0836 71.9415 97.8885 71.5758 97.8096 71.1778C97.7308 70.7798 97.7717 70.3674 97.9273 69.9926C98.083 69.6179 98.3462 69.2978 98.6838 69.0727C99.0214 68.8477 99.4182 68.7278 99.8239 68.7283C100.093 68.7283 100.36 68.7813 100.608 68.8844C100.857 68.9875 101.083 69.1387 101.273 69.3291C101.464 69.5196 101.614 69.7457 101.717 69.9946C101.82 70.2434 101.873 70.51 101.872 70.7792Z" fill="#020064"/>
<path d="M107.253 188.81C107.253 189.569 107.402 190.32 107.693 191.021C107.983 191.722 108.409 192.359 108.945 192.896C109.482 193.432 110.119 193.858 110.82 194.148C111.521 194.439 112.272 194.588 113.031 194.588C113.79 194.588 114.542 194.439 115.243 194.148C115.944 193.858 116.581 193.432 117.117 192.896C117.654 192.359 118.079 191.722 118.37 191.021C118.66 190.32 118.81 189.569 118.81 188.81C118.81 188.051 118.66 187.3 118.37 186.598C118.079 185.897 117.654 185.26 117.117 184.724C116.581 184.187 115.944 183.762 115.243 183.471C114.542 183.181 113.79 183.031 113.031 183.031C112.272 183.031 111.521 183.181 110.82 183.471C110.119 183.762 109.482 184.187 108.945 184.724C108.409 185.26 107.983 185.897 107.693 186.598C107.402 187.3 107.253 188.051 107.253 188.81Z" fill="white" stroke="#020064" stroke-width="2.48" stroke-linecap="round" stroke-linejoin="round"/>
<path d="M214.165 16.3483H130.77C128.975 16.3483 127.197 16.7019 125.539 17.3891C123.88 18.0762 122.373 19.0833 121.103 20.3529C119.834 21.6225 118.827 23.1298 118.14 24.7886C117.454 26.4473 117.1 28.2252 117.101 30.0205V92.9059C117.1 94.7012 117.454 96.479 118.14 98.1378C118.827 99.7966 119.834 101.304 121.103 102.573C122.373 103.843 123.88 104.85 125.539 105.537C127.197 106.224 128.975 106.578 130.77 106.578H136.874L133.553 124.848C133.452 125.379 133.51 125.927 133.721 126.424C133.932 126.921 134.285 127.344 134.736 127.64C135.188 127.936 135.717 128.092 136.257 128.087C136.797 128.082 137.323 127.917 137.769 127.613L169.322 106.578H214.165C215.961 106.578 217.738 106.224 219.397 105.537C221.056 104.85 222.563 103.843 223.832 102.573C225.102 101.304 226.108 99.7966 226.795 98.1378C227.482 96.479 227.835 94.7012 227.835 92.9059V30.0205C227.835 28.2252 227.482 26.4473 226.795 24.7886C226.108 23.1298 225.102 21.6225 223.832 20.3529C222.563 19.0833 221.056 18.0762 219.397 17.3891C217.738 16.7019 215.961 16.3483 214.165 16.3483Z" fill="white"/>
<path d="M214.165 16.3483H130.77C128.975 16.3483 127.197 16.7019 125.539 17.3891C123.88 18.0762 122.373 19.0833 121.103 20.3529C119.834 21.6225 118.827 23.1298 118.14 24.7886C117.454 26.4473 117.1 28.2252 117.101 30.0205V92.9059C117.1 94.7012 117.454 96.479 118.14 98.1378C118.827 99.7966 119.834 101.304 121.103 102.573C122.373 103.843 123.88 104.85 125.539 105.537C127.197 106.224 128.975 106.578 130.77 106.578H136.874L133.553 124.848C133.452 125.379 133.51 125.927 133.721 126.424C133.932 126.921 134.285 127.344 134.736 127.64C135.188 127.936 135.717 128.092 136.257 128.087C136.797 128.082 137.323 127.917 137.769 127.613L169.322 106.578H214.165C215.961 106.578 217.738 106.224 219.397 105.537C221.056 104.85 222.563 103.843 223.832 102.573C225.102 101.304 226.108 99.7966 226.795 98.1378C227.482 96.479 227.835 94.7012 227.835 92.9059V30.0205C227.835 28.2252 227.482 26.4473 226.795 24.7886C226.108 23.1298 225.102 21.6225 223.832 20.3529C222.563 19.0833 221.056 18.0762 219.397 17.3891C217.738 16.7019 215.961 16.3483 214.165 16.3483Z" stroke="#020064" stroke-width="2.48" stroke-linecap="round" stroke-linejoin="round"/>
<path d="M147.247 42.2814C147.248 42.9717 147.044 43.6465 146.66 44.2207C146.277 44.7948 145.733 45.2425 145.095 45.507C144.457 45.7714 143.756 45.8409 143.079 45.7065C142.402 45.5722 141.78 45.24 141.291 44.7521C140.803 44.2642 140.471 43.6425 140.336 42.9656C140.201 42.2886 140.27 41.5869 140.534 40.9492C140.798 40.3114 141.245 39.7663 141.819 39.3828C142.393 38.9993 143.068 38.7946 143.758 38.7946C144.683 38.7946 145.57 39.1618 146.224 39.8157C146.879 40.4695 147.247 41.3564 147.247 42.2814Z" fill="#020064"/>
<path d="M197.688 42.2814C197.688 42.9717 197.892 43.6465 198.275 44.2207C198.658 44.7948 199.203 45.2425 199.841 45.507C200.478 45.7714 201.18 45.8409 201.857 45.7065C202.534 45.5722 203.156 45.24 203.644 44.7521C204.133 44.2642 204.465 43.6425 204.6 42.9656C204.735 42.2886 204.666 41.5869 204.402 40.9492C204.138 40.3114 203.691 39.7663 203.117 39.3828C202.543 38.9993 201.868 38.7946 201.178 38.7946C200.253 38.7946 199.366 39.1618 198.711 39.8157C198.057 40.4695 197.689 41.3564 197.688 42.2814Z" fill="#020064"/>
<path d="M172.47 91.5121C179.662 91.665 186.666 89.2106 192.19 84.6022C197.714 79.9937 201.384 73.5423 202.522 66.4393C202.577 66.0119 202.527 65.5777 202.376 65.1741C202.225 64.7705 201.978 64.4098 201.657 64.1229C201.324 63.8236 200.929 63.6031 200.5 63.4777C200.07 63.3523 199.618 63.3253 199.177 63.3988C181.482 66.2334 163.45 66.2334 145.755 63.3988C145.314 63.3253 144.862 63.3523 144.432 63.4777C144.003 63.6031 143.608 63.8236 143.275 64.1229C142.954 64.4102 142.708 64.771 142.557 65.1745C142.406 65.5779 142.356 66.0119 142.41 66.4393C143.548 73.5436 147.219 79.996 152.745 84.6046C158.27 89.2133 165.276 91.6668 172.47 91.5121Z" fill="#B0D9FF" stroke="#020064" stroke-width="2.48" stroke-linecap="round" stroke-linejoin="round"/>
<path d="M150.399 82.455C157.293 79.2051 164.853 77.62 172.471 77.8273C180.09 77.62 187.65 79.2051 194.543 82.455C188.66 88.2521 180.731 91.5017 172.471 91.5017C164.212 91.5017 156.283 88.2521 150.399 82.455Z" fill="white" stroke="#020064" stroke-width="2.48" stroke-linecap="round" stroke-linejoin="round"/>
<path d="M82.9541 216.462C82.9541 217.001 83.7321 217.534 85.2436 218.032C86.7551 218.529 88.9706 218.982 91.7636 219.362C94.5565 219.743 97.8722 220.045 101.521 220.252C105.171 220.458 109.082 220.564 113.032 220.564C116.981 220.564 120.893 220.458 124.542 220.252C128.191 220.045 131.507 219.743 134.299 219.362C137.092 218.982 139.308 218.529 140.819 218.032C142.331 217.534 143.109 217.001 143.109 216.462C143.109 215.923 142.331 215.39 140.819 214.892C139.308 214.395 137.092 213.942 134.299 213.561C131.507 213.181 128.191 212.878 124.542 212.672C120.893 212.466 116.981 212.36 113.032 212.36C109.082 212.36 105.171 212.466 101.521 212.672C97.8722 212.878 94.5565 213.181 91.7636 213.561C88.9706 213.942 86.7551 214.395 85.2436 214.892C83.7321 215.39 82.9541 215.923 82.9541 216.462Z" fill="#B0D9FF"/>
</svg>
