<svg width="16" height="16" viewBox="0 0 16 16" fill="none" xmlns="http://www.w3.org/2000/svg">
<g clip-path="url(#clip0_14686_258)">
<path fill-rule="evenodd" clip-rule="evenodd" d="M13.5103 0.111765C13.8398 -0.00852201 14.1966 -0.0327456 14.5394 0.0420324C14.8856 0.117559 15.2028 0.290905 15.4534 0.541463C15.7039 0.792021 15.8772 1.10925 15.9528 1.45545C16.0275 1.79822 16.0033 2.15511 15.8831 2.48451L11.7985 14.7267C11.699 15.0279 11.5235 15.2992 11.2894 15.5131C11.0559 15.7264 10.7716 15.8763 10.4638 15.9485C10.1559 16.0235 9.83372 16.0173 9.52895 15.9302C9.22446 15.8432 8.94783 15.6785 8.72615 15.4525L6.5349 13.2713L4.23312 14.4615C4.05364 14.5544 3.83847 14.5455 3.66724 14.4382C3.49601 14.3309 3.39417 14.1411 3.39942 13.9391L3.49378 10.3006L11.5451 4.45211C11.8643 4.22026 11.9352 3.77358 11.7033 3.45441C11.4714 3.13523 11.0248 3.06445 10.7056 3.29629L2.51762 9.24395L0.540819 7.26714C0.326735 7.05321 0.168923 6.78926 0.0819552 6.49936C-0.00439385 6.21153 -0.0184228 5.90689 0.0410622 5.6124C0.100624 5.29067 0.244443 4.99045 0.457907 4.74237C0.672833 4.49258 0.950562 4.30473 1.26239 4.19823L1.26624 4.19691L13.5103 0.111765Z" fill="#0880DF"/>
</g>
<defs>
<clipPath id="clip0_14686_258">
<rect width="16" height="16" fill="white"/>
</clipPath>
</defs>
</svg>
