<?xml version="1.0" standalone="no"?>
<!DOCTYPE svg PUBLIC "-//W3C//DTD SVG 20010904//EN"
 "http://www.w3.org/TR/2001/REC-SVG-20010904/DTD/svg10.dtd">
<svg version="1.0" xmlns="http://www.w3.org/2000/svg"
 width="100.000000pt" height="100.000000pt" viewBox="0 0 400.000000 400.000000"
 preserveAspectRatio="xMidYMid meet">

<g transform="translate(0.000000,400.000000) scale(0.100000,-0.100000)"
fill="#000000" stroke="none">
<path d="M1805 3828 c-610 -69 -1154 -452 -1425 -1003 -187 -381 -236 -788
-144 -1204 119 -536 485 -998 978 -1236 824 -397 1797 -134 2307 624 560 831
336 1960 -500 2522 -352 237 -794 345 -1216 297z m547 -147 c148 -32 270 -75
413 -145 343 -169 602 -428 771 -771 72 -147 111 -261 146 -421 20 -95 23
-136 23 -329 0 -193 -3 -234 -23 -329 -35 -160 -74 -274 -146 -421 -234 -474
-657 -801 -1189 -917 -89 -19 -132 -22 -332 -22 -200 0 -243 3 -332 22 -154
33 -275 76 -418 146 -343 169 -602 428 -771 771 -72 147 -111 261 -146 421
-20 95 -23 136 -23 329 0 193 3 234 23 329 35 160 74 274 146 421 245 498 709
840 1261 929 135 22 468 15 597 -13z"/>
<path d="M860 2069 l0 -962 103 8 c56 5 149 10 207 12 234 6 415 13 605 23
180 9 395 18 468 19 l27 1 0 136 0 136 -22 -14 c-20 -14 -24 -26 -28 -109 l-5
-94 -150 -7 c-82 -4 -334 -15 -560 -24 -225 -10 -452 -19 -502 -21 l-93 -4 0
895 c0 492 3 897 8 899 4 3 45 1 92 -3 47 -5 130 -11 185 -14 333 -20 432 -27
540 -36 66 -6 201 -15 299 -20 99 -6 181 -12 182 -13 7 -6 5 -949 -1 -955 -3
-4 -37 -5 -75 -4 -41 2 -70 -1 -75 -7 -15 -25 -25 -8 -25 42 0 29 -5 58 -12
65 -13 13 -183 17 -212 6 -11 -4 -16 -19 -16 -48 0 -38 -4 -45 -58 -88 -31
-26 -70 -59 -87 -74 -16 -14 -60 -51 -96 -80 -65 -53 -67 -54 -132 -54 -63 0
-66 -1 -70 -27 -8 -40 -8 -103 -1 -135 l6 -28 100 0 100 0 105 86 c57 47 111
88 119 91 11 4 14 -11 14 -86 l0 -91 62 0 c61 0 64 1 109 46 44 43 75 53 62
19 -3 -8 -2 -26 1 -40 7 -26 7 -26 99 -23 l92 3 3 108 c1 59 6 107 9 107 4 0
23 -18 42 -39 20 -22 64 -69 98 -105 l63 -66 197 0 198 0 20 38 c20 37 20 37
92 40 l72 3 18 -38 18 -38 85 -3 c115 -4 122 6 73 109 -50 106 -115 245 -143
306 -13 30 -31 54 -42 56 -11 3 -67 5 -126 4 l-106 -2 -24 -62 c-22 -58 -42
-81 -42 -50 -1 17 -30 50 -65 73 -25 16 -54 20 -210 24 l-180 5 -3 482 -2 482
-33 5 c-17 3 -111 10 -207 15 -96 6 -206 13 -245 16 -168 12 -517 35 -595 39
-145 7 -264 15 -297 21 l-33 6 0 -962z m1160 -118 c0 -46 4 -60 17 -65 9 -4
21 -2 27 4 5 5 41 10 78 10 l68 0 0 -195 0 -195 -70 0 c-38 0 -73 0 -77 0 -5
0 -9 20 -11 45 -4 59 -24 59 -82 0 -41 -42 -48 -45 -97 -45 -35 0 -53 4 -54
13 0 6 0 41 1 77 1 40 -4 72 -12 83 -13 17 -14 17 -36 -2 -13 -10 -40 -33 -60
-49 -20 -16 -63 -50 -94 -76 l-58 -46 -95 0 -96 0 3 78 3 77 35 1 c19 1 51 2
70 3 25 1 45 11 70 34 19 18 88 77 153 131 105 87 118 101 114 124 -9 48 -2
52 104 52 l99 0 0 -59z m1026 -21 c8 -14 34 -68 58 -120 24 -52 62 -135 85
-184 25 -53 39 -92 33 -98 -5 -5 -42 -8 -83 -6 -64 3 -75 6 -84 24 -23 45 -31
49 -107 47 -40 -1 -76 -2 -80 -2 -4 -1 -14 -17 -22 -36 l-15 -35 -95 0 c-62 0
-96 4 -96 11 0 11 40 116 71 186 11 23 19 48 19 55 0 8 4 18 8 24 5 5 19 36
32 69 40 104 27 96 151 93 106 -3 111 -4 125 -28z m-405 0 c58 -30 103 -104
82 -133 -5 -7 -18 -34 -28 -62 -10 -27 -24 -57 -31 -66 -8 -8 -14 -22 -14 -29
0 -7 -8 -37 -17 -67 l-18 -53 -87 0 -86 0 -99 106 c-54 58 -99 110 -101 115
-2 5 50 9 122 9 69 0 126 2 126 4 0 2 3 11 6 20 5 14 -10 16 -125 16 -98 0
-131 3 -132 13 -3 61 1 131 9 136 19 12 368 4 393 -9z"/>
<path d="M2936 1803 c-14 -14 -46 -95 -40 -104 6 -10 77 -9 93 0 6 4 1 27 -14
59 -25 54 -27 57 -39 45z m29 -65 c6 -25 5 -28 -19 -28 -29 0 -31 6 -16 46 12
31 25 24 35 -18z"/>
</g>
</svg>
