<svg width="248" height="248" viewBox="0 0 248 248" fill="none" xmlns="http://www.w3.org/2000/svg">
<path d="M24.8 128.174C24.8 154.483 35.2514 179.715 53.8551 198.319C72.4587 216.922 97.6906 227.374 124 227.374C150.31 227.374 175.541 216.922 194.145 198.319C212.749 179.715 223.2 154.483 223.2 128.174C223.2 101.864 212.749 76.6323 194.145 58.0286C175.541 39.425 150.31 28.9736 124 28.9736C97.6906 28.9736 72.4587 39.425 53.8551 58.0286C35.2514 76.6323 24.8 101.864 24.8 128.174Z" fill="#D9EDFF"/>
<path d="M81.9937 135.108H145.933V181.886H81.9937V135.108Z" fill="#B0D9FF" stroke="#020064" stroke-linecap="round" stroke-linejoin="round"/>
<path d="M143.455 220.938H84.4737C83.8159 220.938 83.1851 220.677 82.72 220.212C82.2549 219.747 81.9937 219.116 81.9937 218.458V181.883H145.935V218.458C145.935 219.116 145.674 219.747 145.209 220.212C144.744 220.677 144.113 220.938 143.455 220.938Z" fill="white" stroke="#020064" stroke-linecap="round" stroke-linejoin="round"/>
<path d="M145.935 135.108H81.9937V103.964C81.9937 103.306 82.2549 102.675 82.72 102.21C83.1851 101.745 83.8159 101.484 84.4737 101.484H143.455C144.113 101.484 144.744 101.745 145.209 102.21C145.674 102.675 145.935 103.306 145.935 103.964V135.108Z" fill="white" stroke="#020064" stroke-linecap="round" stroke-linejoin="round"/>
<path d="M137.608 110.256H90.3216C89.6638 110.256 89.033 109.994 88.5679 109.529C88.1028 109.064 87.8416 108.433 87.8416 107.776V101.484H140.088V107.776C140.088 108.433 139.826 109.064 139.361 109.529C138.896 109.994 138.265 110.256 137.608 110.256Z" fill="white" stroke="#020064" stroke-linecap="round" stroke-linejoin="round"/>
<path d="M95.9636 158.494C95.9636 163.146 97.8117 167.608 101.101 170.898C104.391 174.187 108.852 176.035 113.505 176.035C118.157 176.035 122.618 174.187 125.908 170.898C129.198 167.608 131.046 163.146 131.046 158.494C131.046 153.842 129.198 149.38 125.908 146.091C122.618 142.801 118.157 140.953 113.505 140.953C108.852 140.953 104.391 142.801 101.101 146.091C97.8117 149.38 95.9636 153.842 95.9636 158.494Z" fill="white" stroke="#020064" stroke-linecap="round" stroke-linejoin="round"/>
<path d="M113.505 149.725C112.341 149.705 111.184 149.918 110.103 150.35C109.022 150.782 108.037 151.425 107.207 152.241C106.377 153.057 105.717 154.031 105.267 155.105C104.817 156.178 104.585 157.331 104.585 158.495C104.585 159.66 104.817 160.812 105.267 161.886C105.717 162.96 106.377 163.934 107.207 164.75C108.037 165.566 109.022 166.209 110.103 166.641C111.184 167.073 112.341 167.285 113.505 167.266L172.112 164.476C172.863 164.44 173.571 164.117 174.09 163.573C174.608 163.029 174.897 162.306 174.897 161.554V155.436C174.896 154.686 174.606 153.964 174.088 153.421C173.569 152.878 172.862 152.555 172.112 152.52L113.505 149.725Z" fill="white" stroke="#020064" stroke-linecap="round" stroke-linejoin="round"/>
<path d="M155.496 90.0514L141.025 74.8366C140.065 73.7517 139.299 72.5103 138.759 71.1662L131.673 53.5582C129.565 51.4006 132.777 51.2121 134.934 49.0942C137.092 46.9763 146.266 41.1259 148.376 43.2835L166.554 62.3944L171.363 62.6176C172.81 62.6699 174.177 63.2949 175.163 64.355C176.15 65.4152 176.674 66.8238 176.622 68.2708C176.57 69.7178 175.945 71.0848 174.885 72.071C173.824 73.0572 172.416 73.5819 170.969 73.5296C171.42 74.4676 171.593 75.5149 171.468 76.548C171.343 77.5811 170.925 78.5569 170.264 79.3604C169.602 80.1638 168.725 80.7613 167.735 81.0825C166.745 81.4037 165.684 81.4351 164.677 81.173L161.317 80.3099L163.301 82.4055C164.314 83.4418 164.873 84.838 164.857 86.287C164.84 87.736 164.249 89.1191 163.213 90.132C162.176 91.1449 160.78 91.7047 159.331 91.6881C157.882 91.6716 156.499 91.0802 155.486 90.0439L155.496 90.0514Z" fill="white" stroke="#020064" stroke-linecap="round" stroke-linejoin="round"/>
<path d="M160.669 68.8647L167.407 70.6007C168.102 70.7799 168.755 71.0941 169.328 71.5255C169.902 71.9569 170.385 72.497 170.749 73.115C171.114 73.7329 171.353 74.4167 171.454 75.1272C171.554 75.8377 171.514 76.561 171.334 77.2558C171.155 77.9507 170.841 78.6034 170.41 79.1768C169.978 79.7502 169.438 80.233 168.82 80.5977C168.202 80.9623 167.518 81.2017 166.808 81.3021C166.097 81.4025 165.374 81.362 164.679 81.1829" stroke="#020064" stroke-linecap="round" stroke-linejoin="round"/>
<path d="M152.768 71.3198L163.32 82.4129" stroke="#020064" stroke-linecap="round" stroke-linejoin="round"/>
<path d="M140.47 58.1215L104.673 52.5762C104.203 52.5035 103.723 52.5242 103.261 52.6371C102.798 52.7499 102.363 52.9527 101.979 53.2339C101.595 53.5151 101.27 53.8692 101.023 54.2759C100.776 54.6826 100.612 55.134 100.539 55.6043L92.0923 110.254H136.078L143.495 62.2482C143.641 61.2998 143.404 60.3326 142.836 59.5588C142.269 58.7851 141.418 58.2681 140.47 58.1215Z" fill="#B0D9FF" stroke="#020064" stroke-linecap="round" stroke-linejoin="round"/>
<path d="M98.1287 110.281L106.08 58.8481L137.236 63.6618L130.034 110.261L98.1287 110.281Z" fill="#B0D9FF" stroke="#020064" stroke-linecap="round" stroke-linejoin="round"/>
<path d="M200.677 21.3428L200.625 21.3552C164.962 20.6112 126.882 22.3893 108.587 70.5534L107.535 73.2988C107.017 74.6521 107.057 76.1558 107.648 77.4793C108.238 78.8027 109.33 79.8373 110.684 80.3556C112.037 80.8739 113.541 80.8334 114.864 80.243C116.187 79.6525 117.222 78.5606 117.74 77.2073L118.792 74.4644C123.444 62.3248 129.387 53.6175 141.742 49.7537C160.342 43.7471 154.886 54.9617 148.48 58.3121L135.056 66.0001C134.429 66.3489 133.877 66.8178 133.431 67.38C132.985 67.9421 132.655 68.5866 132.458 69.2766C132.261 69.9665 132.203 70.6884 132.285 71.4011C132.367 72.1138 132.589 72.8033 132.938 73.4302C133.287 74.0572 133.756 74.6092 134.318 75.055C134.88 75.5007 135.524 75.8313 136.214 76.028C136.904 76.2247 137.626 76.2835 138.339 76.2012C139.052 76.1188 139.741 75.8969 140.368 75.5481C167.678 65.7199 173.302 66.9599 181.876 59.0239C188.274 53.0967 193.646 52.375 206.559 49.6941" fill="white"/>
<path d="M200.677 21.3428L200.625 21.3552C164.962 20.6112 126.882 22.3893 108.587 70.5534L107.535 73.2988C107.017 74.6521 107.057 76.1558 107.648 77.4793C108.238 78.8027 109.33 79.8373 110.684 80.3556C112.037 80.8739 113.541 80.8334 114.864 80.243C116.187 79.6525 117.222 78.5606 117.74 77.2073L118.792 74.4644C123.444 62.3248 129.387 53.6175 141.742 49.7537C160.342 43.7471 154.886 54.9617 148.48 58.3121L135.056 66.0001C134.429 66.3489 133.877 66.8178 133.431 67.38C132.985 67.9421 132.655 68.5866 132.458 69.2766C132.261 69.9665 132.203 70.6884 132.285 71.4011C132.367 72.1138 132.589 72.8033 132.938 73.4302C133.287 74.0572 133.756 74.6092 134.318 75.055C134.88 75.5007 135.524 75.8313 136.214 76.028C136.904 76.2247 137.626 76.2835 138.339 76.2012C139.052 76.1188 139.741 75.8969 140.368 75.5481C167.678 65.7199 173.302 66.9599 181.876 59.0239C188.274 53.0967 193.646 52.375 206.559 49.6941" stroke="#020064" stroke-linecap="round" stroke-linejoin="round"/>
</svg>
