<svg width="248" height="248" viewBox="0 0 248 248" fill="none" xmlns="http://www.w3.org/2000/svg">
<path d="M85.1586 214.204C97.0044 219.305 109.739 222.022 122.635 222.202C135.531 222.381 148.336 220.018 160.319 215.249C172.302 210.479 183.228 203.396 192.474 194.404C201.719 185.412 209.103 174.687 214.204 162.841C219.305 150.995 222.022 138.261 222.201 125.365C222.381 112.469 220.018 99.664 215.249 87.681C210.479 75.6981 203.396 64.7719 194.404 55.5262C185.412 46.2806 174.687 38.8967 162.841 33.7959C150.995 28.6954 138.261 25.978 125.365 25.7989C112.469 25.6198 99.6641 27.9825 87.6813 32.7521C75.6984 37.5216 64.7723 44.6047 55.5269 53.5969C46.2814 62.5891 38.8976 73.3142 33.7971 85.16C28.6965 97.0057 25.9791 109.74 25.8 122.636C25.6209 135.532 27.9836 148.337 32.7532 160.32C37.5228 172.303 44.6058 183.229 53.598 192.474C62.5902 201.72 73.3129 209.104 85.1586 214.204Z" fill="#D9EDFF"/>
<path d="M80.4448 199.262C80.4448 200.385 83.717 201.462 89.5416 202.256C95.3661 203.051 103.266 203.497 111.503 203.497C119.74 203.497 127.64 203.051 133.465 202.256C139.289 201.462 142.561 200.385 142.561 199.262C142.561 198.138 139.289 197.061 133.465 196.267C127.64 195.473 119.74 195.026 111.503 195.026C103.266 195.026 95.3661 195.473 89.5416 196.267C83.717 197.061 80.4448 198.138 80.4448 199.262Z" fill="#B0D9FF"/>
<path d="M66.2858 58.5837H134.472L161.746 85.8585V178.378C161.747 178.826 161.659 179.269 161.488 179.683C161.317 180.096 161.066 180.472 160.749 180.789C160.433 181.106 160.057 181.357 159.643 181.528C159.23 181.7 158.786 181.788 158.339 181.788H66.2858C65.8372 181.789 65.3926 181.702 64.9778 181.531C64.5629 181.36 64.1858 181.109 63.868 180.793C63.5503 180.476 63.2983 180.1 63.1263 179.685C62.9543 179.271 62.8657 178.826 62.8657 178.378V62.0013C62.8648 61.552 62.9526 61.107 63.1241 60.6917C63.2957 60.2765 63.5476 59.8992 63.8654 59.5816C64.1832 59.264 64.5607 59.0124 64.976 58.8411C65.3914 58.6699 65.8365 58.5824 66.2858 58.5837Z" fill="white"/>
<path d="M66.2858 58.5837H134.472L161.746 85.8585V178.378C161.747 178.826 161.659 179.269 161.488 179.683C161.317 180.096 161.066 180.472 160.749 180.789C160.433 181.106 160.057 181.357 159.643 181.528C159.23 181.7 158.786 181.788 158.339 181.788H66.2858C65.8372 181.789 65.3926 181.702 64.9778 181.531C64.5629 181.36 64.1858 181.109 63.868 180.793C63.5503 180.476 63.2983 180.1 63.1263 179.685C62.9543 179.271 62.8657 178.826 62.8657 178.378V62.0013C62.8648 61.552 62.9526 61.107 63.1241 60.6917C63.2957 60.2765 63.5476 59.8992 63.8654 59.5816C64.1832 59.264 64.5607 59.0124 64.976 58.8411C65.3914 58.6699 65.8365 58.5824 66.2858 58.5837Z" stroke="#020064" stroke-width="0.72" stroke-linecap="round" stroke-linejoin="round"/>
<path d="M161.746 85.8585L134.472 58.5836V82.4482C134.472 83.3527 134.831 84.2201 135.471 84.8596C136.11 85.4992 136.977 85.8585 137.882 85.8585H161.746Z" fill="#B0D9FF" stroke="#020064" stroke-width="0.72" stroke-linecap="round" stroke-linejoin="round"/>
<path d="M81.1738 83.995H118.677" stroke="#020064" stroke-width="0.72" stroke-linecap="round" stroke-linejoin="round"/>
<path d="M81.1738 99.9071H118.677" stroke="#020064" stroke-width="0.72" stroke-linecap="round" stroke-linejoin="round"/>
<path d="M81.1738 116.141H144.756" stroke="#020064" stroke-width="0.72" stroke-linecap="round" stroke-linejoin="round"/>
<path d="M81.1738 131.67H144.756" stroke="#020064" stroke-width="0.72" stroke-linecap="round" stroke-linejoin="round"/>
<path d="M81.1738 147.906H144.756" stroke="#020064" stroke-width="0.72" stroke-linecap="round" stroke-linejoin="round"/>
<path d="M81.1738 163.435H144.756" stroke="#020064" stroke-width="0.72" stroke-linecap="round" stroke-linejoin="round"/>
<path d="M169.166 110.116L175.23 104.051L190.386 119.21L184.322 125.274L169.166 110.116Z" fill="white" stroke="#020064" stroke-width="0.72" stroke-linecap="round" stroke-linejoin="round"/>
<path d="M176.745 57.0614C182.141 62.4578 185.816 69.3332 187.305 76.8181C188.794 84.303 188.03 92.0613 185.109 99.1119C182.189 106.163 177.243 112.189 170.898 116.429C164.552 120.668 157.092 122.931 149.46 122.931C141.829 122.931 134.369 120.668 128.023 116.429C121.678 112.189 116.732 106.163 113.812 99.1119C110.891 92.0613 110.127 84.303 111.616 76.8181C113.105 69.3332 116.78 62.4578 122.176 57.0614C129.412 49.8256 139.227 45.7606 149.46 45.7606C159.694 45.7606 169.508 49.8256 176.745 57.0614Z" fill="white" stroke="#020064" stroke-width="0.72" stroke-linecap="round" stroke-linejoin="round"/>
<path d="M169.175 64.6406C173.072 68.5379 175.726 73.5033 176.801 78.9088C177.876 84.3143 177.324 89.9172 175.215 95.009C173.106 100.101 169.534 104.453 164.952 107.515C160.369 110.577 154.981 112.211 149.47 112.211C143.959 112.211 138.571 110.577 133.988 107.515C129.406 104.453 125.834 100.101 123.725 95.009C121.616 89.9172 121.064 84.3143 122.139 78.9088C123.214 73.5033 125.868 68.5379 129.765 64.6406C132.352 62.0527 135.424 59.9999 138.805 58.5993C142.187 57.1988 145.81 56.4779 149.47 56.4779C153.13 56.4779 156.754 57.1988 160.135 58.5993C163.516 59.9999 166.588 62.0527 169.175 64.6406Z" fill="#B0D9FF"/>
<path d="M165.677 107.015C161.511 109.995 156.604 111.77 151.495 112.143C146.387 112.517 141.274 111.475 136.719 109.133C132.163 106.791 128.342 103.239 125.673 98.8663C123.005 94.4939 121.593 89.4708 121.593 84.3485C121.593 79.2263 123.005 74.2031 125.673 69.8308C128.342 65.4584 132.163 61.906 136.719 59.5638C141.274 57.2216 146.387 56.1801 151.495 56.5538C156.604 56.9275 161.511 58.7019 165.677 61.6821V107.015Z" stroke="#020064" stroke-width="0.72" stroke-linecap="round" stroke-linejoin="round"/>
<path d="M165.677 107.015C161.511 109.995 156.604 111.77 151.495 112.143C146.387 112.517 141.274 111.475 136.719 109.133C132.163 106.791 128.342 103.239 125.673 98.8663C123.005 94.4939 121.593 89.4708 121.593 84.3485C121.593 79.2263 123.005 74.2031 125.673 69.8308C128.342 65.4584 132.163 61.906 136.719 59.5638C141.274 57.2216 146.387 56.1801 151.495 56.5538C156.604 56.9275 161.511 58.7019 165.677 61.6821V107.015Z" fill="#B0D9FF"/>
<path d="M129.755 104.051C127.167 101.463 125.115 98.3904 123.714 95.0087C122.314 91.627 121.594 88.0027 121.594 84.3426C121.595 76.9507 124.532 69.8619 129.76 64.6357C134.987 59.4095 142.077 56.474 149.469 56.4749C156.861 56.4758 163.95 59.4131 169.176 64.6406L129.755 104.051Z" fill="white"/>
<path d="M169.175 64.6406C173.072 68.5379 175.726 73.5033 176.801 78.9088C177.876 84.3143 177.324 89.9172 175.215 95.009C173.106 100.101 169.534 104.453 164.952 107.515C160.369 110.577 154.981 112.211 149.47 112.211C143.959 112.211 138.571 110.577 133.988 107.515C129.406 104.453 125.834 100.101 123.725 95.009C121.616 89.9172 121.064 84.3143 122.139 78.9088C123.214 73.5033 125.868 68.5379 129.765 64.6406C132.352 62.0527 135.424 59.9999 138.805 58.5993C142.187 57.1988 145.81 56.4779 149.47 56.4779C153.13 56.4779 156.754 57.1988 160.135 58.5993C163.516 59.9999 166.588 62.0527 169.175 64.6406Z" stroke="#020064" stroke-width="0.72" stroke-linecap="round" stroke-linejoin="round"/>
<path d="M165.677 107.015C161.511 109.995 156.604 111.77 151.495 112.143C146.387 112.517 141.274 111.475 136.719 109.133C132.163 106.791 128.342 103.239 125.673 98.8663C123.005 94.4939 121.593 89.4708 121.593 84.3485C121.593 79.2263 123.005 74.2031 125.673 69.8308C128.342 65.4584 132.163 61.906 136.719 59.5638C141.274 57.2216 146.387 56.1801 151.495 56.5538C156.604 56.9275 161.511 58.7019 165.677 61.6821V107.015Z" stroke="#020064" stroke-width="0.72" stroke-linecap="round" stroke-linejoin="round"/>
<path d="M216.154 138.915C217.688 140.537 218.53 142.692 218.5 144.925C218.47 147.157 217.57 149.289 215.992 150.868C214.415 152.448 212.283 153.349 210.051 153.382C207.819 153.414 205.662 152.574 204.04 151.042L184.501 131.503C184.081 131.083 183.747 130.584 183.52 130.035C183.292 129.487 183.175 128.898 183.175 128.304C183.175 127.71 183.292 127.121 183.52 126.572C183.747 126.024 184.081 125.525 184.501 125.105L190.229 119.377C190.649 118.957 191.148 118.623 191.697 118.396C192.246 118.168 192.834 118.051 193.428 118.051C194.022 118.051 194.611 118.168 195.16 118.396C195.709 118.623 196.207 118.957 196.627 119.377L216.154 138.915Z" fill="#B0D9FF"/>
<path d="M216.154 138.915C217.688 140.537 218.53 142.692 218.5 144.925C218.47 147.157 217.57 149.289 215.992 150.868C214.415 152.448 212.283 153.349 210.051 153.382C207.819 153.414 205.662 152.574 204.04 151.042L184.501 131.503C184.081 131.083 183.747 130.584 183.52 130.035C183.292 129.487 183.175 128.898 183.175 128.304C183.175 127.71 183.292 127.121 183.52 126.572C183.747 126.024 184.081 125.525 184.501 125.105L190.229 119.377C190.649 118.957 191.148 118.623 191.697 118.396C192.246 118.168 192.834 118.051 193.428 118.051C194.022 118.051 194.611 118.168 195.16 118.396C195.709 118.623 196.207 118.957 196.627 119.377L216.154 138.915Z" stroke="#020064" stroke-width="0.72" stroke-linecap="round" stroke-linejoin="round"/>
</svg>
