<svg width="248" height="248" viewBox="0 0 248 248" fill="none" xmlns="http://www.w3.org/2000/svg">
<path d="M25.792 124C25.792 150.046 36.1389 175.026 54.5564 193.444C72.974 211.861 97.9536 222.208 124 222.208C150.046 222.208 175.026 211.861 193.444 193.444C211.861 175.026 222.208 150.046 222.208 124C222.208 97.9536 211.861 72.974 193.444 54.5564C175.026 36.1389 150.046 25.792 124 25.792C97.9536 25.792 72.974 36.1389 54.5564 54.5564C36.1389 72.974 25.792 97.9536 25.792 124Z" fill="#D9EDFF"/>
<path d="M65.9051 74.7046H157.938V161.324H65.9051V74.7046Z" fill="white"/>
<path d="M65.9051 74.7046H157.938V161.324H65.9051V74.7046Z" stroke="#020064" stroke-width="0.72" stroke-linecap="round" stroke-linejoin="round"/>
<path d="M88.9127 84.1766C88.9261 84.7182 88.8309 85.2569 88.6329 85.7611C88.4348 86.2653 88.1379 86.7248 87.7597 87.1125C87.3814 87.5002 86.9293 87.8083 86.4301 88.0186C85.931 88.229 85.3948 88.3374 84.8531 88.3374C84.3114 88.3374 83.7752 88.229 83.276 88.0186C82.7768 87.8083 82.3248 87.5002 81.9465 87.1125C81.5682 86.7248 81.2713 86.2653 81.0733 85.7611C80.8752 85.2569 80.7801 84.7182 80.7934 84.1766V63.8771C80.7801 63.3355 80.8752 62.7968 81.0733 62.2926C81.2713 61.7884 81.5682 61.329 81.9465 60.9412C82.3248 60.5535 82.7768 60.2454 83.276 60.035C83.7752 59.8247 84.3114 59.7163 84.8531 59.7163C85.3948 59.7163 85.931 59.8247 86.4301 60.035C86.9293 60.2454 87.3814 60.5535 87.7597 60.9412C88.1379 61.329 88.4348 61.7884 88.6329 62.2926C88.8309 62.7968 88.9261 63.3355 88.9127 63.8771V84.1766Z" fill="#B0D9FF"/>
<path d="M88.9127 84.1766C88.9261 84.7182 88.8309 85.2569 88.6329 85.7611C88.4348 86.2653 88.1379 86.7248 87.7597 87.1125C87.3814 87.5002 86.9293 87.8083 86.4301 88.0186C85.931 88.229 85.3948 88.3374 84.8531 88.3374C84.3114 88.3374 83.7752 88.229 83.276 88.0186C82.7768 87.8083 82.3248 87.5002 81.9465 87.1125C81.5682 86.7248 81.2713 86.2653 81.0733 85.7611C80.8752 85.2569 80.7801 84.7182 80.7934 84.1766V63.8771C80.7801 63.3355 80.8752 62.7968 81.0733 62.2926C81.2713 61.7884 81.5682 61.329 81.9465 60.9412C82.3248 60.5535 82.7768 60.2454 83.276 60.035C83.7752 59.8247 84.3114 59.7163 84.8531 59.7163C85.3948 59.7163 85.931 59.8247 86.4301 60.035C86.9293 60.2454 87.3814 60.5535 87.7597 60.9412C88.1379 61.329 88.4348 61.7884 88.6329 62.2926C88.8309 62.7968 88.9261 63.3355 88.9127 63.8771V84.1766Z" fill="#B0D9FF" stroke="#020064" stroke-width="0.72" stroke-linecap="round" stroke-linejoin="round"/>
<path d="M115.981 84.1766C115.995 84.7182 115.899 85.2569 115.701 85.7611C115.503 86.2653 115.207 86.7248 114.828 87.1125C114.45 87.5002 113.998 87.8083 113.499 88.0186C113 88.229 112.463 88.3374 111.922 88.3374C111.38 88.3374 110.844 88.229 110.345 88.0186C109.845 87.8083 109.393 87.5002 109.015 87.1125C108.637 86.7248 108.34 86.2653 108.142 85.7611C107.944 85.2569 107.849 84.7182 107.862 84.1766V63.8771C107.849 63.3355 107.944 62.7968 108.142 62.2926C108.34 61.7884 108.637 61.329 109.015 60.9412C109.393 60.5535 109.845 60.2454 110.345 60.035C110.844 59.8247 111.38 59.7163 111.922 59.7163C112.463 59.7163 113 59.8247 113.499 60.035C113.998 60.2454 114.45 60.5535 114.828 60.9412C115.207 61.329 115.503 61.7884 115.701 62.2926C115.899 62.7968 115.995 63.3355 115.981 63.8771V84.1766Z" fill="#B0D9FF"/>
<path d="M115.981 84.1766C115.995 84.7182 115.899 85.2569 115.701 85.7611C115.503 86.2653 115.207 86.7248 114.828 87.1125C114.45 87.5002 113.998 87.8083 113.499 88.0186C113 88.229 112.463 88.3374 111.922 88.3374C111.38 88.3374 110.844 88.229 110.345 88.0186C109.845 87.8083 109.393 87.5002 109.015 87.1125C108.637 86.7248 108.34 86.2653 108.142 85.7611C107.944 85.2569 107.849 84.7182 107.862 84.1766V63.8771C107.849 63.3355 107.944 62.7968 108.142 62.2926C108.34 61.7884 108.637 61.329 109.015 60.9412C109.393 60.5535 109.845 60.2454 110.345 60.035C110.844 59.8247 111.38 59.7163 111.922 59.7163C112.463 59.7163 113 59.8247 113.499 60.035C113.998 60.2454 114.45 60.5535 114.828 60.9412C115.207 61.329 115.503 61.7884 115.701 62.2926C115.899 62.7968 115.995 63.3355 115.981 63.8771V84.1766Z" fill="#B0D9FF" stroke="#020064" stroke-width="0.72" stroke-linecap="round" stroke-linejoin="round"/>
<path d="M143.05 84.1766C143.063 84.7182 142.968 85.2569 142.77 85.7611C142.572 86.2653 142.275 86.7248 141.897 87.1125C141.519 87.5002 141.066 87.8083 140.567 88.0186C140.068 88.229 139.532 88.3374 138.99 88.3374C138.449 88.3374 137.912 88.229 137.413 88.0186C136.914 87.8083 136.462 87.5002 136.084 87.1125C135.705 86.7248 135.408 86.2653 135.21 85.7611C135.012 85.2569 134.917 84.7182 134.931 84.1766V63.8771C134.917 63.3355 135.012 62.7968 135.21 62.2926C135.408 61.7884 135.705 61.329 136.084 60.9412C136.462 60.5535 136.914 60.2454 137.413 60.035C137.912 59.8247 138.449 59.7163 138.99 59.7163C139.532 59.7163 140.068 59.8247 140.567 60.035C141.066 60.2454 141.519 60.5535 141.897 60.9412C142.275 61.329 142.572 61.7884 142.77 62.2926C142.968 62.7968 143.063 63.3355 143.05 63.8771V84.1766Z" fill="#B0D9FF"/>
<path d="M143.05 84.1766C143.063 84.7182 142.968 85.2569 142.77 85.7611C142.572 86.2653 142.275 86.7248 141.897 87.1125C141.519 87.5002 141.066 87.8083 140.567 88.0186C140.068 88.229 139.532 88.3374 138.99 88.3374C138.449 88.3374 137.912 88.229 137.413 88.0186C136.914 87.8083 136.462 87.5002 136.084 87.1125C135.705 86.7248 135.408 86.2653 135.21 85.7611C135.012 85.2569 134.917 84.7182 134.931 84.1766V63.8771C134.917 63.3355 135.012 62.7968 135.21 62.2926C135.408 61.7884 135.705 61.329 136.084 60.9412C136.462 60.5535 136.914 60.2454 137.413 60.035C137.912 59.8247 138.449 59.7163 138.99 59.7163C139.532 59.7163 140.068 59.8247 140.567 60.035C141.066 60.2454 141.519 60.5535 141.897 60.9412C142.275 61.329 142.572 61.7884 142.77 62.2926C142.968 62.7968 143.063 63.3355 143.05 63.8771V84.1766Z" fill="#B0D9FF" stroke="#020064" stroke-width="0.72" stroke-linecap="round" stroke-linejoin="round"/>
<path d="M67.744 183.075C67.744 184.51 72.4495 185.887 80.8254 186.903C89.2012 187.918 100.561 188.488 112.407 188.488C124.252 188.488 135.612 187.918 143.988 186.903C152.364 185.887 157.069 184.51 157.069 183.075C157.069 181.639 152.364 180.262 143.988 179.247C135.612 178.231 124.252 177.661 112.407 177.661C100.561 177.661 89.2012 178.231 80.8254 179.247C72.4495 180.262 67.744 181.639 67.744 183.075Z" fill="#B0D9FF"/>
<path d="M134.273 158.888C134.273 168.221 137.98 177.172 144.58 183.772C151.179 190.371 160.13 194.079 169.463 194.079C178.796 194.079 187.747 190.371 194.346 183.772C200.946 177.172 204.653 168.221 204.653 158.888C204.653 149.555 200.946 140.605 194.346 134.005C187.747 127.406 178.796 123.698 169.463 123.698C160.13 123.698 151.179 127.406 144.58 134.005C137.98 140.605 134.273 149.555 134.273 158.888Z" fill="#B0D9FF"/>
<path d="M134.273 158.888C134.273 168.221 137.98 177.172 144.58 183.772C151.179 190.371 160.13 194.079 169.463 194.079C178.796 194.079 187.747 190.371 194.346 183.772C200.946 177.172 204.653 168.221 204.653 158.888C204.653 149.555 200.946 140.605 194.346 134.005C187.747 127.406 178.796 123.698 169.463 123.698C160.13 123.698 151.179 127.406 144.58 134.005C137.98 140.605 134.273 149.555 134.273 158.888Z" stroke="#020064" stroke-width="0.72" stroke-linecap="round" stroke-linejoin="round"/>
<path d="M162.345 176.254C161.672 176.255 161.005 176.122 160.383 175.864C159.761 175.606 159.197 175.228 158.721 174.751L148.476 164.511C147.543 163.544 147.027 162.25 147.039 160.907C147.051 159.564 147.59 158.279 148.54 157.329C149.489 156.379 150.774 155.84 152.117 155.828C153.461 155.817 154.755 156.333 155.721 157.265L162.35 163.894L183.219 143.025C184.194 142.136 185.474 141.657 186.793 141.687C188.111 141.718 189.368 142.256 190.3 143.19C191.232 144.124 191.768 145.381 191.796 146.7C191.825 148.019 191.343 149.298 190.452 150.271L165.967 174.754C165.492 175.23 164.927 175.608 164.306 175.866C163.684 176.123 163.018 176.255 162.345 176.254Z" fill="white" stroke="#020064" stroke-width="0.72" stroke-linejoin="round"/>
</svg>
