<svg width="248" height="248" viewBox="0 0 248 248" fill="none" xmlns="http://www.w3.org/2000/svg">
<path d="M25.792 124C25.792 150.046 36.1389 175.026 54.5564 193.444C72.974 211.861 97.9536 222.208 124 222.208C150.046 222.208 175.026 211.861 193.444 193.444C211.861 175.026 222.208 150.046 222.208 124C222.208 97.9536 211.861 72.974 193.444 54.5564C175.026 36.1389 150.046 25.792 124 25.792C97.9536 25.792 72.974 36.1389 54.5564 54.5564C36.1389 72.974 25.792 97.9536 25.792 124Z" fill="#D9EDFF"/>
<path d="M58.4241 46.3789H150.978V158.903H58.4241V46.3789Z" fill="#B0D9FF"/>
<path d="M58.4241 127.715H75.252V136.129H58.4241V127.715Z" fill="white" stroke="#020064" stroke-width="0.72" stroke-linejoin="round"/>
<path d="M127.307 158.903L150.978 135.232V156.102C150.976 156.845 150.68 157.557 150.154 158.082C149.629 158.607 148.917 158.904 148.174 158.905L127.307 158.903Z" fill="white" stroke="#020064" stroke-width="0.72" stroke-linejoin="round"/>
<path d="M91.0684 71.6208H130.334V88.4488H91.0684V71.6208Z" fill="white"/>
<path d="M91.0684 71.6208H130.334V88.4488H91.0684V71.6208Z" stroke="#020064" stroke-width="0.72" stroke-linejoin="round"/>
<path d="M58.4241 46.3789H150.978V158.903H58.4241V46.3789Z" stroke="#020064" stroke-width="0.72" stroke-linecap="round" stroke-linejoin="round"/>
<path d="M75.252 46.3789V158.903" stroke="#020064" stroke-width="0.72" stroke-linejoin="round"/>
<path d="M127.307 46.3789H148.176C148.545 46.3786 148.91 46.4509 149.25 46.5916C149.591 46.7324 149.9 46.9389 150.161 47.1993C150.421 47.4597 150.628 47.7689 150.769 48.1092C150.91 48.4495 150.983 48.8143 150.983 49.1827V70.0519L127.307 46.3789Z" fill="white"/>
<path d="M127.307 46.3789H148.176C148.545 46.3786 148.91 46.4509 149.25 46.5916C149.591 46.7324 149.9 46.9389 150.161 47.1993C150.421 47.4597 150.628 47.7689 150.769 48.1092C150.91 48.4495 150.983 48.8143 150.983 49.1827V70.0519L127.307 46.3789Z" stroke="#020064" stroke-width="0.72" stroke-linecap="round" stroke-linejoin="round"/>
<path d="M64.6578 198.297C64.6578 199.66 70.0752 200.968 79.7182 201.932C89.3612 202.896 102.44 203.438 116.077 203.438C129.714 203.438 142.793 202.896 152.436 201.932C162.079 200.968 167.496 199.66 167.496 198.297C167.496 196.933 162.079 195.625 152.436 194.661C142.793 193.697 129.714 193.156 116.077 193.156C102.44 193.156 89.3612 193.697 79.7182 194.661C70.0752 195.625 64.6578 196.933 64.6578 198.297Z" fill="#B0D9FF"/>
<path d="M164.854 154.444L171.474 147.823L183.062 159.411L176.438 166.031L164.854 154.444Z" fill="white" stroke="#020064" stroke-width="0.72" stroke-linecap="round" stroke-linejoin="round"/>
<path d="M117.017 148.876C119.651 152.669 123.007 155.906 126.893 158.4C130.779 160.895 135.119 162.598 139.664 163.413C144.21 164.228 148.871 164.139 153.382 163.15C157.892 162.161 162.164 160.292 165.951 157.65C169.738 155.008 172.967 151.645 175.453 147.753C177.939 143.862 179.633 139.518 180.438 134.971C181.243 130.424 181.143 125.762 180.144 121.254C179.145 116.746 177.267 112.478 174.616 108.697C171.983 104.904 168.627 101.667 164.741 99.1727C160.855 96.6782 156.515 94.9747 151.969 94.1598C147.424 93.3448 142.763 93.4344 138.252 94.4234C133.741 95.4124 129.47 97.2814 125.683 99.9233C121.895 102.565 118.666 105.928 116.18 109.82C113.695 113.712 112.001 118.055 111.196 122.602C110.391 127.149 110.491 131.811 111.49 136.319C112.489 140.828 114.367 145.095 117.017 148.876Z" fill="#B0D9FF" stroke="#020064" stroke-width="0.72" stroke-linecap="round" stroke-linejoin="round"/>
<path d="M121.304 138.942C122.623 142.183 124.569 145.13 127.032 147.615C129.494 150.1 132.423 152.074 135.651 153.422C138.879 154.771 142.342 155.468 145.84 155.473C149.338 155.478 152.803 154.792 156.035 153.453C159.267 152.114 162.202 150.149 164.672 147.672C167.141 145.194 169.097 142.253 170.425 139.017C171.754 135.78 172.429 132.313 172.413 128.815C172.397 125.317 171.689 121.857 170.33 118.633C169.011 115.393 167.064 112.445 164.602 109.96C162.14 107.475 159.211 105.502 155.983 104.153C152.755 102.805 149.292 102.108 145.794 102.102C142.296 102.097 138.831 102.784 135.599 104.122C132.367 105.461 129.432 107.426 126.962 109.904C124.492 112.381 122.537 115.323 121.209 118.559C119.88 121.795 119.204 125.262 119.221 128.76C119.237 132.258 119.945 135.719 121.304 138.942Z" fill="white"/>
<path d="M164.577 110.025C168.288 113.736 170.815 118.464 171.839 123.611C172.863 128.758 172.338 134.093 170.329 138.941C168.321 143.789 164.92 147.933 160.557 150.849C156.194 153.765 151.064 155.321 145.816 155.321C140.568 155.321 135.438 153.765 131.074 150.849C126.711 147.933 123.31 143.789 121.302 138.941C119.294 134.093 118.768 128.758 119.792 123.611C120.816 118.464 123.343 113.736 127.054 110.025C132.03 105.049 138.779 102.254 145.816 102.254C152.853 102.254 159.601 105.049 164.577 110.025Z" stroke="#020064" stroke-width="0.72"/>
<path d="M204.619 189.166L206.193 187.59C207.298 186.482 207.919 184.981 207.919 183.416C207.919 181.851 207.298 180.35 206.193 179.242L184.452 157.501C184.269 157.318 184.053 157.172 183.814 157.073C183.575 156.974 183.319 156.923 183.06 156.923C182.801 156.923 182.545 156.974 182.306 157.073C182.067 157.172 181.85 157.318 181.668 157.501L174.521 164.648C174.337 164.831 174.192 165.048 174.093 165.287C173.993 165.525 173.942 165.782 173.942 166.04C173.942 166.299 173.993 166.555 174.093 166.794C174.192 167.033 174.337 167.25 174.521 167.432L196.264 189.176C196.813 189.724 197.465 190.158 198.182 190.454C198.899 190.75 199.668 190.902 200.443 190.901C201.219 190.901 201.987 190.747 202.704 190.449C203.42 190.151 204.071 189.715 204.619 189.166Z" fill="#B0D9FF"/>
<path d="M206.195 187.59L204.619 189.163C203.511 190.269 202.01 190.889 200.445 190.889C198.88 190.889 197.379 190.269 196.271 189.163L174.53 167.423C174.347 167.24 174.202 167.023 174.102 166.784C174.003 166.545 173.952 166.289 173.952 166.031C173.952 165.772 174.003 165.516 174.102 165.277C174.202 165.038 174.347 164.821 174.53 164.638L181.678 157.491C181.86 157.308 182.077 157.163 182.316 157.063C182.555 156.964 182.811 156.913 183.07 156.913C183.328 156.913 183.584 156.964 183.823 157.063C184.062 157.163 184.279 157.308 184.462 157.491L206.195 179.242C207.301 180.35 207.922 181.851 207.922 183.416C207.922 184.981 207.301 186.482 206.195 187.59Z" stroke="#020064" stroke-width="0.72"/>
</svg>
