<svg width="25" height="24" viewBox="0 0 25 24" fill="none" xmlns="http://www.w3.org/2000/svg">
<path d="M12.5 9V2L10.5 4" stroke="#0880DF" stroke-width="1.5" stroke-linecap="round" stroke-linejoin="round"/>
<path d="M12.5 2L14.5 4" stroke="#0880DF" stroke-width="1.5" stroke-linecap="round" stroke-linejoin="round"/>
<path d="M2.47998 13H6.88998C7.26998 13 7.60998 13.21 7.77998 13.55L8.94998 15.89C9.28998 16.57 9.97998 17 10.74 17H14.27C15.03 17 15.72 16.57 16.06 15.89L17.23 13.55C17.4 13.21 17.75 13 18.12 13H22.48" stroke="#0880DF" stroke-width="1.5" stroke-linecap="round" stroke-linejoin="round"/>
<path d="M7.5 5.12988C3.96 5.64988 2.5 7.72988 2.5 11.9999V14.9999C2.5 19.9999 4.5 21.9999 9.5 21.9999H15.5C20.5 21.9999 22.5 19.9999 22.5 14.9999V11.9999C22.5 7.72988 21.04 5.64988 17.5 5.12988" stroke="#0880DF" stroke-width="1.5" stroke-linecap="round" stroke-linejoin="round"/>
</svg>
