<svg width="248" height="248" viewBox="0 0 248 248" fill="none" xmlns="http://www.w3.org/2000/svg">
<path d="M25.792 124C25.792 150.046 36.1389 175.026 54.5564 193.444C72.974 211.861 97.9536 222.208 124 222.208C150.046 222.208 175.026 211.861 193.444 193.444C211.861 175.026 222.208 150.046 222.208 124C222.208 97.9536 211.861 72.974 193.444 54.5564C175.026 36.1389 150.046 25.792 124 25.792C97.9536 25.792 72.974 36.1389 54.5564 54.5564C36.1389 72.974 25.792 97.9536 25.792 124Z" fill="#D9EDFF"/>
<path d="M72.5684 186.264C72.5684 186.763 73.8987 187.257 76.4833 187.718C79.068 188.18 82.8564 188.599 87.6323 188.951C92.4082 189.304 98.0779 189.584 104.318 189.775C110.558 189.966 117.246 190.065 124 190.065C130.754 190.065 137.442 189.966 143.682 189.775C149.922 189.584 155.592 189.304 160.367 188.951C165.143 188.599 168.932 188.18 171.516 187.718C174.101 187.257 175.431 186.763 175.431 186.264C175.431 185.256 170.013 184.289 160.367 183.577C150.722 182.864 137.64 182.463 124 182.463C110.359 182.463 97.2776 182.864 87.6323 183.577C77.987 184.289 72.5684 185.256 72.5684 186.264Z" fill="#B0D9FF"/>
<path d="M58.5098 72.8213H189.819V183.497H58.5098V72.8213Z" fill="white" stroke="#020064" stroke-width="0.72" stroke-linejoin="round"/>
<path d="M189.819 106.588H58.5098V78.7138C58.5098 77.151 59.1306 75.6522 60.2356 74.5472C61.3407 73.4421 62.8395 72.8213 64.4022 72.8213H183.926C185.489 72.8213 186.988 73.4421 188.093 74.5472C189.198 75.6522 189.819 77.151 189.819 78.7138V106.588Z" fill="#B0D9FF"/>
<path d="M189.819 129.097V175.991C189.819 177.981 189.029 179.89 187.622 181.297C186.214 182.704 184.306 183.495 182.316 183.495H129.792C129.792 183.495 159.804 174.118 189.819 129.097Z" fill="white"/>
<path d="M189.819 129.097V175.991C189.819 177.981 189.029 179.89 187.622 181.297C186.214 182.704 184.306 183.495 182.316 183.495H129.792C129.792 183.495 159.804 174.118 189.819 129.097Z" stroke="#020064" stroke-width="0.72" stroke-linejoin="round"/>
<path d="M189.819 106.588H58.5098V78.7138C58.5098 77.151 59.1306 75.6522 60.2356 74.5472C61.3407 73.4421 62.8395 72.8213 64.4022 72.8213H183.926C185.489 72.8213 186.988 73.4421 188.093 74.5472C189.198 75.6522 189.819 77.151 189.819 78.7138V106.588Z" stroke="#020064" stroke-width="0.72" stroke-linejoin="round"/>
<path d="M86.6467 84.0762C84.4208 84.0762 82.2448 83.4161 80.394 82.1794C78.5432 80.9428 77.1006 79.185 76.2488 77.1285C75.397 75.072 75.1741 72.8091 75.6083 70.6259C76.0426 68.4427 77.1145 66.4373 78.6885 64.8633C80.2625 63.2893 82.2679 62.2174 84.4511 61.7832C86.6343 61.3489 88.8972 61.5718 90.9537 62.4236C93.0102 63.2754 94.7679 64.718 96.0046 66.5688C97.2413 68.4196 97.9014 70.5956 97.9014 72.8215" stroke="#020064" stroke-width="0.72" stroke-linecap="round" stroke-linejoin="round"/>
<path d="M126.04 84.0762C123.814 84.0762 121.638 83.4161 119.788 82.1794C117.937 80.9428 116.494 79.185 115.642 77.1285C114.791 75.072 114.568 72.8091 115.002 70.6259C115.436 68.4427 116.508 66.4373 118.082 64.8633C119.656 63.2893 121.661 62.2174 123.845 61.7832C126.028 61.3489 128.291 61.5718 130.347 62.4236C132.404 63.2754 134.161 64.718 135.398 66.5688C136.635 68.4196 137.295 70.5956 137.295 72.8215" stroke="#020064" stroke-width="0.72" stroke-linecap="round" stroke-linejoin="round"/>
<path d="M165.434 84.0762C163.208 84.0762 161.032 83.4161 159.181 82.1794C157.33 80.9428 155.888 79.185 155.036 77.1285C154.184 75.072 153.961 72.8091 154.395 70.6259C154.83 68.4427 155.902 66.4373 157.476 64.8633C159.05 63.2893 161.055 62.2174 163.238 61.7832C165.421 61.3489 167.684 61.5718 169.741 62.4236C171.797 63.2754 173.555 64.718 174.792 66.5688C176.028 68.4196 176.688 70.5956 176.688 72.8215" stroke="#020064" stroke-width="0.72" stroke-linecap="round" stroke-linejoin="round"/>
<path d="M58.5098 125.345H189.819" stroke="#020064" stroke-width="0.72" stroke-linecap="round" stroke-linejoin="round"/>
<path d="M58.5098 144.103H136.99" stroke="#020064" stroke-width="0.72" stroke-linecap="round" stroke-linejoin="round"/>
<path d="M58.5098 162.863H136.99" stroke="#020064" stroke-width="0.72" stroke-linecap="round" stroke-linejoin="round"/>
<path d="M84.771 106.588V183.497" stroke="#020064" stroke-width="0.72" stroke-linecap="round" stroke-linejoin="round"/>
<path d="M111.034 106.588V183.497" stroke="#020064" stroke-width="0.72" stroke-linecap="round" stroke-linejoin="round"/>
<path d="M137.295 106.588V132.043" stroke="#020064" stroke-width="0.72" stroke-linecap="round" stroke-linejoin="round"/>
<path d="M163.556 106.588V135.468" stroke="#020064" stroke-width="0.72" stroke-linecap="round" stroke-linejoin="round"/>
<path d="M58.5098 125.345H84.7706V144.103H58.5098V125.345Z" fill="#B0D9FF" stroke="#020064" stroke-width="0.72" stroke-linejoin="round"/>
<path d="M84.771 162.863H111.032V183.497H84.771V162.863Z" fill="#B0D9FF" stroke="#020064" stroke-width="0.72" stroke-linejoin="round"/>
<path d="M111.034 106.588H137.295V125.346H111.034V106.588Z" fill="#B0D9FF" stroke="#020064" stroke-width="0.72" stroke-linejoin="round"/>
<path d="M189.819 129.097C159.804 174.118 129.792 183.497 129.792 183.497C134.063 176.028 136.696 167.735 137.515 159.17C138.333 150.605 137.32 141.964 134.54 133.821C134.446 133.555 134.426 133.268 134.482 132.991C134.538 132.714 134.668 132.458 134.859 132.249C135.05 132.041 135.294 131.888 135.564 131.808C135.835 131.727 136.123 131.722 136.396 131.793C145.058 134.167 171.196 139.959 189.819 129.097Z" fill="white" stroke="#020064" stroke-width="0.72" stroke-linecap="round" stroke-linejoin="round"/>
<path d="M105.404 95.3306H142.922" stroke="#020064" stroke-width="0.72" stroke-linecap="round" stroke-linejoin="round"/>
<path d="M163.556 95.3306H178.564" stroke="#020064" stroke-width="0.72" stroke-linecap="round" stroke-linejoin="round"/>
<path d="M84.7708 95.3306H69.7646" stroke="#020064" stroke-width="0.72" stroke-linecap="round" stroke-linejoin="round"/>
</svg>
