<svg width="133" height="133" viewBox="0 0 133 133" fill="none" xmlns="http://www.w3.org/2000/svg">
    <path d="M66.4996 94.1986C79.9117 94.1986 90.7843 92.8409 90.7843 91.1662C90.7843 89.4914 79.9117 88.1338 66.4996 88.1338C53.0875 88.1338 42.2148 89.4914 42.2148 91.1662C42.2148 92.8409 53.0875 94.1986 66.4996 94.1986Z"
          fill="#212552"/>
    <path d="M61.1172 89.0318V88.0519C61.1172 87.8403 61.0331 87.6373 60.8834 87.4876C60.7338 87.338 60.5308 87.2539 60.3192 87.2539H51.5412C51.3295 87.2539 51.1266 87.338 50.9769 87.4876C50.8272 87.6373 50.7432 87.8403 50.7432 88.0519V90.9779C50.7432 91.1895 50.8272 91.3925 50.9769 91.5422C51.1266 91.6918 51.3295 91.7759 51.5412 91.7759H57.3795C58.0156 91.7759 58.6258 91.5232 59.0756 91.0733L61.1172 89.0318Z"
          fill="#92D6E9"/>
    <path opacity="0.3"
          d="M60.3192 87.2539H51.5412C51.3295 87.2539 51.1266 87.338 50.9769 87.4876C50.8272 87.6373 50.7432 87.8403 50.7432 88.0519V90.7675H59.3815L61.1172 89.0318V88.0519C61.1172 87.8403 61.0331 87.6373 60.8834 87.4876C60.7338 87.338 60.5308 87.2539 60.3192 87.2539Z"
          fill="#0A1E2B" stroke="#0A1E2B" stroke-width="0.798" stroke-miterlimit="10" stroke-linecap="round"
          stroke-linejoin="round"/>
    <path d="M71.8838 89.0318V88.0519C71.8838 87.8403 71.9679 87.6373 72.1175 87.4876C72.2672 87.338 72.4701 87.2539 72.6818 87.2539H81.4598C81.6714 87.2539 81.8744 87.338 82.0241 87.4876C82.1737 87.6373 82.2578 87.8403 82.2578 88.0519V90.9779C82.2578 91.1895 82.1737 91.3925 82.0241 91.5422C81.8744 91.6918 81.6714 91.7759 81.4598 91.7759H75.6215C74.9853 91.7759 74.3751 91.5232 73.9253 91.0733L71.8838 89.0318Z"
          fill="#92D6E9"/>
    <path opacity="0.3"
          d="M81.4598 87.2539H72.6818C72.4701 87.2539 72.2672 87.338 72.1175 87.4876C71.9679 87.6373 71.8838 87.8403 71.8838 88.0519V89.0318L73.6194 90.7675H82.2578V88.0519C82.2578 87.8403 82.1737 87.6373 82.0241 87.4876C81.8744 87.338 81.6714 87.2539 81.4598 87.2539Z"
          fill="#0A1E2B" stroke="#0A1E2B" stroke-width="0.798" stroke-miterlimit="10" stroke-linecap="round"
          stroke-linejoin="round"/>
    <path d="M61.1172 89.0318V88.0519C61.1172 87.8403 61.0331 87.6373 60.8834 87.4876C60.7338 87.338 60.5308 87.2539 60.3192 87.2539H51.5412C51.3295 87.2539 51.1266 87.338 50.9769 87.4876C50.8272 87.6373 50.7432 87.8403 50.7432 88.0519V90.9779C50.7432 91.1895 50.8272 91.3925 50.9769 91.5422C51.1266 91.6918 51.3295 91.7759 51.5412 91.7759H57.3795C58.0156 91.7759 58.6258 91.5232 59.0756 91.0733L61.1172 89.0318ZM71.8838 89.0318V88.0519C71.8838 87.8403 71.9679 87.6373 72.1175 87.4876C72.2672 87.338 72.4701 87.2539 72.6818 87.2539H81.4598C81.6714 87.2539 81.8744 87.338 82.0241 87.4876C82.1737 87.6373 82.2578 87.8403 82.2578 88.0519V90.9779C82.2578 91.1895 82.1737 91.3925 82.0241 91.5422C81.8744 91.6918 81.6714 91.7759 81.4598 91.7759H75.6215C74.9853 91.7759 74.3751 91.5232 73.9253 91.0733L71.8838 89.0318Z"
          stroke="#212552" stroke-width="0.798" stroke-miterlimit="10" stroke-linecap="round" stroke-linejoin="round"/>
    <path d="M83.7896 89.0383H49.2096C46.2715 89.0383 43.8896 86.6565 43.8896 83.7183V49.1384C43.8896 46.2003 46.2715 43.8184 49.2096 43.8184H83.7896C86.7277 43.8184 89.1096 46.2003 89.1096 49.1384V83.7183C89.1096 86.6565 86.7277 89.0383 83.7896 89.0383Z"
          fill="#CBEDF9"/>
    <path d="M83.7896 43.8184H49.2096C46.2715 43.8184 43.8896 46.2003 43.8896 49.1384V52.1974C43.8896 49.2593 46.2715 46.8774 49.2096 46.8774H83.7896C86.7277 46.8774 89.1096 49.2593 89.1096 52.1974V49.1384C89.1096 46.2001 86.7277 43.8184 83.7896 43.8184Z"
          fill="#E8F9FF"/>
    <path opacity="0.23" d="M75.6328 43.7734H79.0464L76.7411 48.6059L75.6328 43.7734Z" fill="#0A1E2B" stroke="#0A1E2B"
          stroke-width="0.798" stroke-miterlimit="10" stroke-linecap="round" stroke-linejoin="round"/>
    <path d="M83.7896 85.9792H49.2096C46.2715 85.9792 43.8896 83.5973 43.8896 80.6592V83.7182C43.8896 86.6563 46.2715 89.0382 49.2096 89.0382H83.7896C86.7277 89.0382 89.1096 86.6563 89.1096 83.7182V80.6592C89.1096 83.5973 86.7277 85.9792 83.7896 85.9792Z"
          fill="#92D6E9"/>
    <path d="M83.7896 89.0384H49.2096C46.2715 89.0384 43.8896 86.6565 43.8896 83.7184V49.1384C43.8896 46.2003 46.2715 43.8184 49.2096 43.8184H83.7896C86.7277 43.8184 89.1096 46.2003 89.1096 49.1384V83.7184C89.1096 86.6565 86.7277 89.0384 83.7896 89.0384Z"
          stroke="#212552" stroke-width="0.798" stroke-miterlimit="10" stroke-linecap="round" stroke-linejoin="round"/>
    <path d="M82.1937 48.6064H50.8057C49.6304 48.6064 48.6777 49.5591 48.6777 50.7344V51.7984C48.6777 50.6231 49.6304 50.0694 50.8057 50.0694H82.1937C83.3691 50.0694 84.3217 50.6231 84.3217 51.7984V50.7344C84.3217 49.5591 83.3691 48.6064 82.1937 48.6064Z"
          fill="#E8F9FF"/>
    <path d="M82.1937 82.5206H50.8057C49.6304 82.5206 48.6777 81.5679 48.6777 80.3926V82.1216C48.6777 83.2969 49.6304 84.2496 50.8057 84.2496H82.1937C83.3691 84.2496 84.3217 83.2969 84.3217 82.1216V80.3926C84.3217 81.5678 83.3691 82.5206 82.1937 82.5206Z"
          fill="#92D6E9"/>
    <path d="M50.8057 84.2504C49.6304 84.2504 48.6777 83.2978 48.6777 82.1224V50.7344C48.6777 49.5591 49.6304 48.6064 50.8057 48.6064H82.1937C83.3691 48.6064 84.3217 49.5591 84.3217 50.7344V82.1224C84.3217 83.2978 83.3691 84.2504 82.1937 84.2504H50.8057Z"
          stroke="#212552" stroke-width="0.798" stroke-miterlimit="10" stroke-linecap="round" stroke-linejoin="round"/>
    <path opacity="0.23"
          d="M80.5099 79.0749H80.2439C80.1028 79.0749 79.9675 79.0189 79.8677 78.9191C79.768 78.8193 79.7119 78.684 79.7119 78.5429V58.3269C79.7119 58.1858 79.768 58.0505 79.8677 57.9507C79.9675 57.851 80.1028 57.7949 80.2439 57.7949H80.5099C80.651 57.7949 80.7863 57.851 80.8861 57.9507C80.9859 58.0505 81.0419 58.1858 81.0419 58.3269V78.5429C81.0419 78.684 80.9859 78.8193 80.8861 78.9191C80.7863 79.0189 80.651 79.0749 80.5099 79.0749Z"
          fill="#0A1E2B" stroke="#0A1E2B" stroke-width="0.798" stroke-miterlimit="10" stroke-linecap="round"
          stroke-linejoin="round"/>
    <path d="M80.5099 76.4148H80.2439C80.1028 76.4148 79.9675 76.3587 79.8677 76.2589C79.768 76.1592 79.7119 76.0239 79.7119 75.8828V55.6668C79.7119 55.5257 79.768 55.3904 79.8677 55.2906C79.9675 55.1908 80.1028 55.1348 80.2439 55.1348H80.5099C80.651 55.1348 80.7863 55.1908 80.8861 55.2906C80.9859 55.3904 81.0419 55.5257 81.0419 55.6668V75.8828C81.0419 76.0239 80.9859 76.1592 80.8861 76.2589C80.7863 76.3587 80.651 76.4148 80.5099 76.4148Z"
          fill="#92D6E9"/>
    <path d="M80.5099 76.4148H80.2439C80.1028 76.4148 79.9675 76.3587 79.8677 76.2589C79.768 76.1592 79.7119 76.0239 79.7119 75.8828V55.6668C79.7119 55.5257 79.768 55.3904 79.8677 55.2906C79.9675 55.1908 80.1028 55.1348 80.2439 55.1348H80.5099C80.651 55.1348 80.7863 55.1908 80.8861 55.2906C80.9859 55.3904 81.0419 55.5257 81.0419 55.6668V75.8828C81.0419 76.0239 80.9859 76.1592 80.8861 76.2589C80.7863 76.3587 80.651 76.4148 80.5099 76.4148Z"
          stroke="#212552" stroke-width="0.798" stroke-miterlimit="10" stroke-linecap="round" stroke-linejoin="round"/>
    <path opacity="0.23"
          d="M66.5005 76.1367C71.275 76.1367 75.1455 72.2662 75.1455 67.4917C75.1455 62.7172 71.275 58.8467 66.5005 58.8467C61.726 58.8467 57.8555 62.7172 57.8555 67.4917C57.8555 72.2662 61.726 76.1367 66.5005 76.1367Z"
          fill="#0A1E2B" stroke="#0A1E2B" stroke-width="0.798" stroke-miterlimit="10" stroke-linecap="round"
          stroke-linejoin="round"/>
    <path d="M66.5005 75.0732C71.275 75.0732 75.1455 71.2027 75.1455 66.4282C75.1455 61.6537 71.275 57.7832 66.5005 57.7832C61.726 57.7832 57.8555 61.6537 57.8555 66.4282C57.8555 71.2027 61.726 75.0732 66.5005 75.0732Z"
          fill="#CBEDF9"/>
    <path d="M66.5005 75.0732C71.275 75.0732 75.1455 71.2027 75.1455 66.4282C75.1455 61.6537 71.275 57.7832 66.5005 57.7832C61.726 57.7832 57.8555 61.6537 57.8555 66.4282C57.8555 71.2027 61.726 75.0732 66.5005 75.0732Z"
          stroke="#212552" stroke-width="0.798" stroke-miterlimit="10" stroke-linecap="round" stroke-linejoin="round"/>
    <path d="M66.5004 73.6101C70.4669 73.6101 73.6824 70.3946 73.6824 66.4281C73.6824 62.4616 70.4669 59.2461 66.5004 59.2461C62.5339 59.2461 59.3184 62.4616 59.3184 66.4281C59.3184 70.3946 62.5339 73.6101 66.5004 73.6101Z"
          fill="#92D6E9"/>
    <path d="M66.4999 60.9746V71.8806M71.9529 66.4276H61.0469M70.3569 62.5706L62.6429 70.2846M70.3569 70.2846L62.6429 62.5706"
          stroke="#212552" stroke-width="1.33" stroke-miterlimit="10" stroke-linecap="round" stroke-linejoin="round"/>
    <path opacity="0.3"
          d="M66.4998 72.7789C64.6635 72.7789 63.1748 71.2902 63.1748 69.4539V66.1289H69.8248V69.4539C69.8248 71.2902 68.3361 72.7789 66.4998 72.7789Z"
          fill="#0A1E2B" stroke="#0A1E2B" stroke-width="0.798" stroke-miterlimit="10" stroke-linecap="round"
          stroke-linejoin="round"/>
    <path opacity="0.23"
          d="M48.6783 61.4401C48.3961 61.4401 48.1254 61.328 47.9259 61.1285C47.7264 60.9289 47.6143 60.6583 47.6143 60.3761V57.1841C47.6143 56.9019 47.7264 56.6313 47.9259 56.4318C48.1254 56.2322 48.3961 56.1201 48.6783 56.1201C48.9604 56.1201 49.2311 56.2322 49.4306 56.4318C49.6302 56.6313 49.7423 56.9019 49.7423 57.1841V60.3761C49.7423 60.6583 49.6302 60.9289 49.4306 61.1285C49.2311 61.328 48.9604 61.4401 48.6783 61.4401ZM48.6783 78.7966C48.3961 78.7966 48.1254 78.6845 47.9259 78.485C47.7264 78.2854 47.6143 78.0148 47.6143 77.7326V74.5406C47.6143 74.2584 47.7264 73.9878 47.9259 73.7882C48.1254 73.5887 48.3961 73.4766 48.6783 73.4766C48.9604 73.4766 49.2311 73.5887 49.4306 73.7882C49.6302 73.9878 49.7423 74.2584 49.7423 74.5406V77.7326C49.7423 78.0148 49.6302 78.2854 49.4306 78.485C49.2311 78.6845 48.9604 78.7966 48.6783 78.7966Z"
          fill="#0A1E2B" stroke="#0A1E2B" stroke-width="0.798" stroke-miterlimit="10" stroke-linecap="round"
          stroke-linejoin="round"/>
    <path d="M48.6783 60.3766C48.3961 60.3766 48.1254 60.2645 47.9259 60.065C47.7264 59.8655 47.6143 59.5948 47.6143 59.3126V56.1206C47.6143 55.8385 47.7264 55.5678 47.9259 55.3683C48.1254 55.1687 48.3961 55.0566 48.6783 55.0566C48.9604 55.0566 49.2311 55.1687 49.4306 55.3683C49.6302 55.5678 49.7423 55.8385 49.7423 56.1206V59.3126C49.7423 59.5948 49.6302 59.8655 49.4306 60.065C49.2311 60.2645 48.9604 60.3766 48.6783 60.3766ZM48.6783 77.7996C48.3961 77.7996 48.1254 77.6875 47.9259 77.488C47.7264 77.2885 47.6143 77.0178 47.6143 76.7356V73.5436C47.6143 73.2614 47.7264 72.9908 47.9259 72.7913C48.1254 72.5917 48.3961 72.4796 48.6783 72.4796C48.9604 72.4796 49.2311 72.5917 49.4306 72.7913C49.6302 72.9908 49.7423 73.2614 49.7423 73.5436V76.7356C49.7423 77.0178 49.6302 77.2885 49.4306 77.488C49.2311 77.6875 48.9604 77.7996 48.6783 77.7996Z"
          fill="#92D6E9"/>
    <path d="M48.6783 60.3766C48.3961 60.3766 48.1254 60.2645 47.9259 60.065C47.7264 59.8655 47.6143 59.5948 47.6143 59.3126V56.1206C47.6143 55.8385 47.7264 55.5678 47.9259 55.3683C48.1254 55.1687 48.3961 55.0566 48.6783 55.0566C48.9604 55.0566 49.2311 55.1687 49.4306 55.3683C49.6302 55.5678 49.7423 55.8385 49.7423 56.1206V59.3126C49.7423 59.5948 49.6302 59.8655 49.4306 60.065C49.2311 60.2645 48.9604 60.3766 48.6783 60.3766ZM48.6783 77.7996C48.3961 77.7996 48.1254 77.6875 47.9259 77.488C47.7264 77.2885 47.6143 77.0178 47.6143 76.7356V73.5436C47.6143 73.2614 47.7264 72.9908 47.9259 72.7913C48.1254 72.5917 48.3961 72.4796 48.6783 72.4796C48.9604 72.4796 49.2311 72.5917 49.4306 72.7913C49.6302 72.9908 49.7423 73.2614 49.7423 73.5436V76.7356C49.7423 77.0178 49.6302 77.2885 49.4306 77.488C49.2311 77.6875 48.9604 77.7996 48.6783 77.7996Z"
          stroke="#212552" stroke-width="0.798" stroke-miterlimit="10" stroke-linecap="round" stroke-linejoin="round"/>
    <path d="M66.4998 69.7535C68.3362 69.7535 69.8248 68.2649 69.8248 66.4285C69.8248 64.5922 68.3362 63.1035 66.4998 63.1035C64.6635 63.1035 63.1748 64.5922 63.1748 66.4285C63.1748 68.2649 64.6635 69.7535 66.4998 69.7535Z"
          fill="#FFEA9E"/>
    <path d="M66.5005 67.9238C67.3265 67.9238 67.9961 67.2542 67.9961 66.4282C67.9961 65.6022 67.3265 64.9326 66.5005 64.9326C65.6745 64.9326 65.0049 65.6022 65.0049 66.4282C65.0049 67.2542 65.6745 67.9238 66.5005 67.9238Z"
          fill="#EDC75D"/>
    <path d="M66.5004 69.4871C68.1898 69.4871 69.5594 68.1176 69.5594 66.4281C69.5594 64.7387 68.1898 63.3691 66.5004 63.3691C64.811 63.3691 63.4414 64.7387 63.4414 66.4281C63.4414 68.1176 64.811 69.4871 66.5004 69.4871Z"
          stroke="#212552" stroke-width="1.064" stroke-miterlimit="10" stroke-linecap="round" stroke-linejoin="round"/>
    <path d="M77.007 48.6059H67.8965V41.6566C67.8965 41.4009 67.9981 41.1556 68.1789 40.9748C68.3597 40.794 68.605 40.6924 68.8607 40.6924H76.0427C76.2985 40.6924 76.5437 40.794 76.7246 40.9748C76.9054 41.1556 77.007 41.4009 77.007 41.6566V48.6059Z"
          fill="#5F9E71" stroke="#212552" stroke-width="0.798" stroke-miterlimit="10" stroke-linecap="round"
          stroke-linejoin="round"/>
    <path d="M75.2112 42.3555H73.2661C73.2661 42.5715 73.1803 42.7787 73.0275 42.9315C72.8747 43.0843 72.6675 43.1701 72.4515 43.1701C72.2354 43.1701 72.0282 43.0843 71.8754 42.9315C71.7227 42.7787 71.6368 42.5715 71.6368 42.3555H69.6917C69.58 42.3555 69.4729 42.3998 69.3939 42.4788C69.3149 42.5578 69.2705 42.665 69.2705 42.7767V48.6065H75.6323V42.7767C75.6323 42.7214 75.6214 42.6666 75.6003 42.6155C75.5791 42.5644 75.5481 42.518 75.509 42.4788C75.4699 42.4397 75.4235 42.4087 75.3724 42.3875C75.3213 42.3664 75.2665 42.3555 75.2112 42.3555Z"
          fill="#90C49E"/>
    <path d="M72.452 49.0981C73.5538 49.0981 74.447 48.2437 74.447 47.1897C74.447 46.1357 73.5538 45.2812 72.452 45.2812C71.3502 45.2812 70.457 46.1357 70.457 47.1897C70.457 48.2437 71.3502 49.0981 72.452 49.0981Z"
          fill="white"/>
    <path d="M92.8389 46.1898L90.1447 45.8183M86.4362 41.9801L86.0364 39.29M89.1012 42.9417L91.0243 41.0185M77.007 48.606H67.8965V41.6568C67.8965 41.401 67.9981 41.1558 68.1789 40.9749C68.3597 40.7941 68.605 40.6925 68.8607 40.6925H76.0427C76.2985 40.6925 76.5437 40.7941 76.7246 40.9749C76.9054 41.1558 77.007 41.401 77.007 41.6568V48.606Z"
          stroke="#212552" stroke-width="0.798" stroke-miterlimit="10" stroke-linecap="round" stroke-linejoin="round"/>
</svg>
