<svg width="32" height="32" viewBox="0 0 32 32" fill="none" xmlns="http://www.w3.org/2000/svg">
<circle cx="16" cy="16" r="16" fill="#D78521"/>
<path d="M22.4762 14.6211H20.2743C18.4686 14.6211 16.9982 13.1506 16.9982 11.3449V9.14301C16.9982 8.72396 16.6553 8.3811 16.2362 8.3811H13.0058C10.6591 8.3811 8.76196 9.90491 8.76196 12.6249V19.3754C8.76196 22.0954 10.6591 23.6192 13.0058 23.6192H18.9943C21.341 23.6192 23.2382 22.0954 23.2382 19.3754V15.383C23.2382 14.964 22.8953 14.6211 22.4762 14.6211Z" fill="white"/>
<path d="M18.8953 8.54104C18.5829 8.22866 18.042 8.44199 18.042 8.87628V11.5353C18.042 12.6477 18.9868 13.5696 20.1372 13.5696C20.861 13.5772 21.8668 13.5772 22.7277 13.5772C23.162 13.5772 23.3906 13.0668 23.0858 12.762C21.9887 11.6572 20.0229 9.66866 18.8953 8.54104Z" fill="white"/>
</svg>
