<svg width="248" height="248" viewBox="0 0 248 248" fill="none" xmlns="http://www.w3.org/2000/svg">
<path d="M24.7998 124C24.7998 150.31 35.2512 175.541 53.8548 194.145C72.4584 212.749 97.6903 223.2 124 223.2C150.309 223.2 175.541 212.749 194.145 194.145C212.748 175.541 223.2 150.31 223.2 124C223.2 97.6906 212.748 72.4587 194.145 53.8551C175.541 35.2514 150.309 24.8 124 24.8C97.6903 24.8 72.4584 35.2514 53.8548 53.8551C35.2512 72.4587 24.7998 97.6906 24.7998 124Z" fill="#D9EDFF"/>
<path d="M47.8989 216.551C47.8989 217.412 49.2558 218.265 51.8922 219.06C54.5285 219.856 58.3926 220.579 63.2639 221.188C68.1353 221.796 73.9183 222.279 80.283 222.609C86.6477 222.939 93.4693 223.108 100.358 223.108C107.247 223.108 114.069 222.939 120.434 222.609C126.798 222.279 132.581 221.796 137.453 221.188C142.324 220.579 146.188 219.856 148.825 219.06C151.461 218.265 152.818 217.412 152.818 216.551C152.818 215.69 151.461 214.837 148.825 214.042C146.188 213.246 142.324 212.523 137.453 211.914C132.581 211.306 126.798 210.823 120.434 210.493C114.069 210.163 107.247 209.994 100.358 209.994C93.4693 209.994 86.6477 210.163 80.283 210.493C73.9183 210.823 68.1353 211.306 63.2639 211.914C58.3926 212.523 54.5285 213.246 51.8922 214.042C49.2558 214.837 47.8989 215.69 47.8989 216.551Z" fill="#B0D9FF"/>
<path d="M65.9604 191.32H134.758V201.326H65.9604V191.32Z" fill="white" stroke="#020064" stroke-linecap="round" stroke-linejoin="round"/>
<path d="M150.417 205.131C150.942 206.179 151.19 207.345 151.137 208.516C151.085 209.688 150.733 210.827 150.117 211.824C149.5 212.822 148.639 213.645 147.615 214.216C146.59 214.787 145.437 215.086 144.264 215.085H56.4523C54.6277 215.085 52.8779 214.361 51.5877 213.07C50.2976 211.78 49.5728 210.031 49.5728 208.206C49.5728 206.381 50.2976 204.632 51.5877 203.341C52.8779 202.051 54.6277 201.326 56.4523 201.326H144.264C145.542 201.327 146.794 201.683 147.881 202.355C148.968 203.026 149.846 203.988 150.417 205.131Z" fill="#B0D9FF" stroke="#020064" stroke-linecap="round" stroke-linejoin="round"/>
<path d="M100.358 143.163V135.031" stroke="#020064" stroke-linecap="round" stroke-linejoin="round"/>
<path d="M141.038 191.32C142.023 191.328 142.998 191.124 143.897 190.722C144.796 190.319 145.598 189.728 146.248 188.988C146.898 188.248 147.381 187.376 147.663 186.433C147.946 185.489 148.023 184.496 147.887 183.52C146.039 172.247 140.244 161.998 131.537 154.603C122.831 147.208 111.779 143.148 100.356 143.148C88.9324 143.148 77.8808 147.208 69.1742 154.603C60.4676 161.998 54.6727 172.247 52.824 183.52C52.6863 184.497 52.7608 185.491 53.0426 186.436C53.3244 187.381 53.8067 188.254 54.4567 188.996C55.1067 189.737 55.9091 190.33 56.809 190.733C57.7089 191.136 58.6852 191.341 59.6713 191.332L141.038 191.32Z" fill="#B0D9FF" stroke="#020064" stroke-linecap="round" stroke-linejoin="round"/>
<path d="M90.9766 128.776H109.74V135.031H90.9766V128.776Z" fill="#B0D9FF" stroke="#020064" stroke-linecap="round" stroke-linejoin="round"/>
<path d="M155.861 122.237L134.592 107.238C133.162 106.151 131.928 104.827 130.944 103.324L118.073 83.6205C114.985 81.5076 118.847 80.5032 120.96 77.4205C123.073 74.3379 132.809 64.9933 135.894 67.1062L162.614 85.9542L168.516 85.0639C170.27 84.8188 172.05 85.2705 173.474 86.3222C174.899 87.3739 175.855 88.9419 176.137 90.6901C176.419 92.4382 176.006 94.2274 174.984 95.674C173.963 97.1205 172.416 98.1094 170.674 98.4286C171.444 99.4612 171.903 100.692 171.999 101.976C172.094 103.261 171.822 104.546 171.213 105.681C170.604 106.816 169.684 107.754 168.561 108.385C167.439 109.016 166.159 109.314 164.873 109.244L160.578 108.996L163.509 111.062C164.991 112.077 166.01 113.639 166.34 115.404C166.67 117.17 166.286 118.995 165.271 120.477C164.256 121.959 162.694 122.978 160.928 123.308C159.163 123.639 157.338 123.254 155.856 122.239L155.861 122.237Z" fill="white" stroke="#020064" stroke-linecap="round" stroke-linejoin="round"/>
<path d="M157.016 95.2319L165.627 95.7081C167.399 95.8352 169.05 96.6536 170.225 97.9869C171.399 99.3202 172.003 101.062 171.905 102.836C171.807 104.61 171.017 106.274 169.703 107.471C168.389 108.667 166.658 109.3 164.883 109.232" stroke="#020064" stroke-linecap="round" stroke-linejoin="round"/>
<path d="M148.004 100.125L163.514 111.062" stroke="#020064" stroke-linecap="round" stroke-linejoin="round"/>
<path d="M135.817 88.6847L132.333 83.5759" stroke="#020064" stroke-linecap="round" stroke-linejoin="round"/>
<path d="M208.171 60.8343L194.164 27.7883L194.105 27.8131C150.571 35.5359 104.706 46.9091 94.1087 109.876L93.4962 113.467C93.3296 114.351 93.3406 115.259 93.5285 116.138C93.7164 117.017 94.0775 117.85 94.5907 118.588C95.1039 119.326 95.7589 119.955 96.5176 120.438C97.2763 120.92 98.1234 121.246 99.0096 121.398C99.8958 121.55 100.803 121.523 101.679 121.321C102.555 121.118 103.382 120.743 104.111 120.217C104.841 119.692 105.458 119.026 105.928 118.259C106.397 117.493 106.709 116.64 106.846 115.751L107.464 112.163C110.192 96.2909 115.303 84.2579 129.389 76.5749C150.556 64.7726 146.62 79.7319 139.651 85.3491L125.188 97.9426C123.85 99.114 123.026 100.765 122.894 102.539C122.763 104.313 123.335 106.067 124.486 107.423C125.637 108.779 127.276 109.628 129.047 109.785C130.819 109.943 132.582 109.398 133.955 108.267C164.776 89.7015 171.919 89.8677 180.42 78.1423C186.764 69.3903 193.118 67.2079 208.171 60.8343Z" fill="white"/>
<path d="M194.164 27.7883L194.105 27.8131C150.571 35.5359 104.706 46.9091 94.1087 109.876L93.4962 113.467C93.3296 114.351 93.3406 115.259 93.5285 116.138C93.7164 117.017 94.0775 117.85 94.5907 118.588C95.1039 119.326 95.7589 119.955 96.5176 120.437C97.2763 120.92 98.1234 121.246 99.0096 121.398C99.8958 121.55 100.803 121.523 101.679 121.321C102.555 121.118 103.382 120.743 104.111 120.217C104.841 119.692 105.458 119.026 105.928 118.259C106.397 117.493 106.709 116.64 106.846 115.751L107.464 112.163C110.192 96.2909 115.303 84.2579 129.389 76.5749C150.556 64.7726 146.62 79.7319 139.651 85.3491L125.188 97.9426C123.85 99.114 123.026 100.765 122.894 102.539C122.763 104.313 123.335 106.067 124.486 107.423C125.637 108.779 127.276 109.628 129.047 109.785C130.819 109.943 132.582 109.398 133.955 108.267C164.776 89.7015 171.919 89.8677 180.42 78.1423C186.764 69.3903 193.118 67.2079 208.171 60.8343" stroke="#020064" stroke-linecap="round" stroke-linejoin="round"/>
<path d="M74.5835 86.3585C74.5999 86.8542 74.449 87.3409 74.1549 87.7403C73.8609 88.1396 73.441 88.4283 72.9628 88.5598C72.4846 88.6913 71.9761 88.658 71.5192 88.4651C71.0624 88.2723 70.6837 87.9312 70.4444 87.4969L60.0656 68.696C59.9048 68.4043 59.8122 68.08 59.7946 67.7473C59.777 67.4147 59.8349 67.0824 59.964 66.7754C60.093 66.4683 60.2899 66.1945 60.5399 65.9743C60.7898 65.7542 61.0864 65.5935 61.4073 65.5042L71.0793 62.8109C71.4012 62.7214 71.7393 62.7061 72.068 62.7663C72.3967 62.8264 72.7074 62.9604 72.9768 63.1581C73.2462 63.3559 73.4671 63.6122 73.623 63.9077C73.7789 64.2033 73.8657 64.5304 73.8767 64.8644L74.5835 86.3585Z" fill="#B0D9FF" stroke="#020064" stroke-linecap="round" stroke-linejoin="round"/>
<path d="M52.9405 131.74C53.4361 131.724 53.9229 131.875 54.3222 132.169C54.7216 132.463 55.0102 132.883 55.1417 133.361C55.2733 133.839 55.2399 134.347 55.0471 134.804C54.8542 135.261 54.5131 135.64 54.0788 135.879L35.268 146.255C34.9765 146.417 34.6523 146.51 34.3197 146.528C33.9871 146.546 33.6547 146.488 33.3476 146.359C33.0404 146.23 32.7664 146.034 32.5463 145.784C32.3261 145.534 32.1654 145.237 32.0762 144.916L29.383 135.244C29.2934 134.922 29.2781 134.584 29.3383 134.256C29.3984 133.927 29.5324 133.616 29.7302 133.347C29.9279 133.077 30.1842 132.856 30.4798 132.7C30.7753 132.545 31.1024 132.458 31.4364 132.447L52.9405 131.74Z" fill="#B0D9FF" stroke="#020064" stroke-linecap="round" stroke-linejoin="round"/>
<path d="M62.072 107.456C62.4273 107.796 62.6588 108.245 62.7296 108.732C62.8005 109.219 62.7066 109.716 62.463 110.143C62.2194 110.571 61.8399 110.904 61.3849 111.091C60.9299 111.279 60.4254 111.308 59.9516 111.176L30.9604 102.801C30.6402 102.709 30.3451 102.545 30.0972 102.323C29.8493 102.1 29.6551 101.825 29.5291 101.516C29.4031 101.208 29.3486 100.875 29.3697 100.542C29.3908 100.21 29.4869 99.8867 29.6509 99.5968L36.5949 87.3133C36.7606 87.025 36.9893 86.7779 37.264 86.5904C37.5386 86.4029 37.852 86.2799 38.1809 86.2305C38.5097 86.1811 38.8455 86.2067 39.163 86.3053C39.4806 86.4039 39.7718 86.573 40.0148 86.8L62.072 107.456Z" fill="#B0D9FF" stroke="#020064" stroke-linecap="round" stroke-linejoin="round"/>
</svg>
