<svg width="56" height="56" viewBox="0 0 56 56" fill="none" xmlns="http://www.w3.org/2000/svg">
<circle cx="28" cy="28" r="28" fill="#355070"/>
<path d="M32.7865 18.6666H32.3332V14.6666C32.3332 14.12 31.8798 13.6666 31.3332 13.6666C30.7865 13.6666 30.3332 14.12 30.3332 14.6666V18.6666H25.6665V14.6666C25.6665 14.12 25.2132 13.6666 24.6665 13.6666C24.1198 13.6666 23.6665 14.12 23.6665 14.6666V18.6666H23.2132C21.8132 18.6666 20.6665 19.8133 20.6665 21.2133V28C20.6665 30.9333 22.6665 33.3333 25.9998 33.3333H26.9998V41.3333C26.9998 41.88 27.4532 42.3333 27.9998 42.3333C28.5465 42.3333 28.9998 41.88 28.9998 41.3333V33.3333H29.9998C33.3332 33.3333 35.3332 30.9333 35.3332 28V21.2133C35.3332 19.8133 34.1865 18.6666 32.7865 18.6666Z" fill="white"/>
</svg>
