<svg width="56" height="56" viewBox="0 0 56 56" fill="none" xmlns="http://www.w3.org/2000/svg">
<circle cx="28" cy="28" r="28" fill="#294D4A"/>
<path d="M39.6134 22.8266V35.3733C39.6134 38.6533 36.9334 41.3333 33.6534 41.3333H22.3467C19.0667 41.3333 16.3867 38.6533 16.3867 35.3733V22.8266C16.3867 20.5466 17.6667 18.56 19.5467 17.56C20.2001 17.2133 21.0134 17.68 21.0134 18.4266C21.0134 20.5466 22.7467 22.28 24.8667 22.28H31.1334C33.2534 22.28 34.9867 20.5466 34.9867 18.4266C34.9867 17.68 35.7867 17.2133 36.4534 17.56C38.3334 18.56 39.6134 20.5466 39.6134 22.8266Z" fill="white"/>
<path d="M31.1333 14.6666H24.8667C23.48 14.6666 22.3467 15.7866 22.3467 17.1733V18.4266C22.3467 19.8133 23.4667 20.9333 24.8533 20.9333H31.1333C32.52 20.9333 33.64 19.8133 33.64 18.4266V17.1733C33.6533 15.7866 32.52 14.6666 31.1333 14.6666Z" fill="white"/>
</svg>
