<svg width="56" height="56" viewBox="0 0 56 56" fill="none" xmlns="http://www.w3.org/2000/svg">
<circle cx="28" cy="28" r="28" fill="#841F33"/>
<path d="M34.6665 16H21.3332C17.6532 16 14.6665 18.9867 14.6665 22.6667V24V33.3333C14.6665 37.0133 17.6532 40 21.3332 40H33.3332H34.6665C38.3465 40 41.3332 37.0133 41.3332 33.3333V22.6667C41.3332 18.9867 38.3465 16 34.6665 16ZM25.9865 34.4133C25.9465 34.4133 25.9065 34.4267 25.8532 34.4267C25.3598 34.4267 24.9332 34.0533 24.8665 33.56C24.6932 32.2 23.7065 31.2133 22.3465 31.04C21.7998 30.9733 21.4132 30.4667 21.4798 29.92C21.5465 29.3733 22.0532 28.9867 22.5998 29.0533C24.8532 29.3467 26.5598 31.0533 26.8532 33.3067C26.9198 33.84 26.5332 34.3467 25.9865 34.4133ZM30.0532 33.7333C30.0132 33.7333 29.9732 33.7467 29.9198 33.7467C29.4265 33.7467 28.9998 33.3733 28.9332 32.88C28.5198 29.7067 26.2132 27.3867 23.0265 26.9733C22.4798 26.9067 22.0932 26.4 22.1598 25.8533C22.2265 25.3067 22.7332 24.92 23.2798 24.9867C27.3865 25.52 30.3865 28.5067 30.9198 32.6267C30.9865 33.16 30.5998 33.6533 30.0532 33.7333ZM33.6532 32.5733C33.6132 32.5733 33.5732 32.5867 33.5198 32.5867C33.0265 32.5867 32.5998 32.2133 32.5332 31.72C31.9598 27.2133 28.6798 23.9333 24.1732 23.36C23.6265 23.2933 23.2398 22.7867 23.3065 22.24C23.3732 21.6933 23.8798 21.3067 24.4265 21.3733C29.8532 22.0667 33.8132 26.0267 34.5198 31.4667C34.5865 32.0133 34.1998 32.5067 33.6532 32.5733Z" fill="white"/>
</svg>
