<svg width="56" height="56" viewBox="0 0 56 56" fill="none" xmlns="http://www.w3.org/2000/svg">
<circle cx="28" cy="28" r="28" fill="#D78521"/>
<path d="M39.3335 25.5866H35.4802C32.3202 25.5866 29.7468 23.0133 29.7468 19.8533V16C29.7468 15.2666 29.1468 14.6666 28.4135 14.6666H22.7602C18.6535 14.6666 15.3335 17.3333 15.3335 22.0933V33.9066C15.3335 38.6666 18.6535 41.3333 22.7602 41.3333H33.2402C37.3468 41.3333 40.6668 38.6666 40.6668 33.9066V26.92C40.6668 26.1866 40.0668 25.5866 39.3335 25.5866Z" fill="white"/>
<path d="M33.0666 14.9467C32.5199 14.4 31.5732 14.7734 31.5732 15.5334V20.1867C31.5732 22.1334 33.2266 23.7467 35.2399 23.7467C36.5066 23.76 38.2666 23.76 39.7732 23.76C40.5332 23.76 40.9332 22.8667 40.3999 22.3334C38.4799 20.4 35.0399 16.92 33.0666 14.9467Z" fill="white"/>
</svg>
