<svg width="56" height="56" viewBox="0 0 56 56" fill="none" xmlns="http://www.w3.org/2000/svg">
<circle cx="28" cy="28" r="28" fill="#96BBBB"/>
<path d="M34.1198 21.88L20.4131 35.5866C19.7731 36.2266 18.6798 36.08 18.2931 35.2666C17.5998 33.84 17.1998 32.2266 17.1998 30.5333C17.1731 23.1733 24.6398 16.88 27.1731 14.9466C27.6664 14.5733 28.3331 14.5733 28.8131 14.9466C29.9731 15.8266 32.1464 17.6533 34.1864 20.0533C34.6398 20.5866 34.6131 21.3866 34.1198 21.88Z" fill="white"/>
<path d="M38.7998 30.5467C38.7998 36.4933 33.9598 41.3333 27.9998 41.3333C25.6131 41.3333 23.3865 40.56 21.5865 39.2267C20.9331 38.7467 20.8798 37.7867 21.4531 37.2133L34.8798 23.7867C35.5065 23.16 36.5598 23.2933 36.9865 24.0667C38.0798 26.08 38.8131 28.2667 38.7998 30.5467Z" fill="white"/>
</svg>
