<svg width="136" height="136" viewBox="0 0 136 136" fill="none" xmlns="http://www.w3.org/2000/svg">
<path d="M68.0001 122.4C98.0444 122.4 122.4 98.0439 122.4 67.9996C122.4 37.9553 98.0444 13.5996 68.0001 13.5996C37.9558 13.5996 13.6001 37.9553 13.6001 67.9996C13.6001 98.0439 37.9558 122.4 68.0001 122.4Z" fill="#D9EDFF"/>
<path d="M106.123 28.1248C106.271 28.1521 106.411 28.2132 106.532 28.3032C106.652 28.3934 106.75 28.5101 106.818 28.6443C106.886 28.7785 106.922 28.9268 106.924 29.0772C106.925 29.2277 106.892 29.3765 106.826 29.512L102.897 37.6013C102.802 37.7977 102.645 37.9566 102.449 38.0528C102.253 38.1489 102.031 38.1768 101.817 38.1319C101.604 38.0871 101.411 37.9719 101.271 37.805C101.131 37.6381 101.05 37.429 101.042 37.2109L100.709 28.341C100.704 28.195 100.731 28.0494 100.79 27.9153C100.848 27.7812 100.935 27.662 101.046 27.5662C101.157 27.4706 101.287 27.401 101.428 27.3625C101.569 27.324 101.717 27.3178 101.861 27.3441L106.123 28.1248Z" fill="#B0D9FF" stroke="#020064" stroke-linejoin="round"/>
<path d="M86.159 28.6959C86.0126 28.7314 85.8763 28.8002 85.761 28.897C85.6456 28.9937 85.5542 29.116 85.4938 29.254C85.4335 29.3921 85.4059 29.5421 85.4133 29.6926C85.4206 29.843 85.4626 29.9896 85.5361 30.1212L89.9166 37.9752C90.0227 38.1654 90.1893 38.3147 90.3899 38.3993C90.5905 38.4841 90.8137 38.4992 91.0239 38.4424C91.2342 38.3857 91.4194 38.2603 91.5503 38.0863C91.6811 37.912 91.7499 37.6992 91.7458 37.4815L91.5772 28.6061C91.5743 28.4599 91.5388 28.3163 91.473 28.1857C91.4072 28.055 91.313 27.9409 91.1972 27.8517C91.0815 27.7624 90.9471 27.7002 90.804 27.6698C90.661 27.6394 90.513 27.6415 90.3709 27.6759L86.159 28.6959Z" fill="#B0D9FF" stroke="#020064" stroke-linejoin="round"/>
<path d="M50.9661 32.746C50.8496 32.6506 50.7125 32.5836 50.5657 32.55C50.4189 32.5164 50.2663 32.5172 50.1198 32.5523C49.9735 32.5875 49.837 32.6561 49.7216 32.7526C49.606 32.8492 49.5143 32.9712 49.4538 33.1091L45.8389 41.3439C45.7526 41.543 45.735 41.7651 45.789 41.9752C45.843 42.1853 45.9654 42.3715 46.1369 42.5044C46.3084 42.6371 46.5192 42.7091 46.7361 42.7088C46.9532 42.7085 47.1638 42.636 47.3349 42.5026L54.3063 37.0082C54.4213 36.9178 54.5146 36.8026 54.5792 36.6712C54.6438 36.5398 54.678 36.3957 54.6793 36.2492C54.6806 36.1029 54.649 35.958 54.5867 35.8256C54.5246 35.6931 54.4333 35.5761 54.3199 35.4837L50.9661 32.746Z" fill="#B0D9FF" stroke="#020064" stroke-linejoin="round"/>
<path d="M34.3305 26.8707C34.18 26.8656 34.0304 26.8954 33.8935 26.9577C33.7565 27.02 33.6356 27.1132 33.5406 27.2297C33.4454 27.3463 33.3785 27.4833 33.3449 27.63C33.3114 27.7767 33.3121 27.9292 33.3472 28.0756L35.4511 36.8191C35.5021 37.0307 35.6225 37.2192 35.7929 37.3546C35.9634 37.4901 36.1742 37.5648 36.392 37.5667C36.6097 37.5684 36.8218 37.4976 36.9946 37.365C37.1674 37.2325 37.2909 37.046 37.3456 36.8354L39.576 28.2429C39.6135 28.1011 39.6186 27.9527 39.5908 27.8087C39.5629 27.6646 39.5031 27.5288 39.4155 27.4111C39.3279 27.2935 39.2149 27.1972 39.0849 27.1292C38.955 27.0613 38.8114 27.0235 38.6648 27.0189L34.3305 26.8707Z" fill="#B0D9FF" stroke="#020064" stroke-linejoin="round"/>
<path d="M41.8879 56.5159C41.688 52.119 40.9019 42.7405 37.2857 43.2695C36.9429 43.3194 36.6132 43.4364 36.3156 43.6139C36.0181 43.7914 35.7584 44.0257 35.5514 44.3037C35.3446 44.5815 35.1944 44.8974 35.1098 45.2334C35.0251 45.5694 35.0076 45.9187 35.058 46.2615L35.1845 47.1319C36.1175 53.5103 34.325 60.585 28.9734 61.367L30.9182 74.7059L31.5982 74.6066C34.9438 74.117 36.8655 76.206 42.8563 75.3302L53.0127 73.8478C53.628 73.7576 54.1823 73.4266 54.5538 72.9277C54.925 72.4289 55.0831 71.8029 54.9929 71.1876C54.9027 70.5722 54.5717 70.0179 54.0729 69.6466C53.574 69.2752 52.948 69.1173 52.3327 69.2074L53.4928 69.0388C54.1081 68.9486 54.6624 68.6176 55.0338 68.1188C55.4051 67.6199 55.5632 66.9939 55.473 66.3786C55.3828 65.7632 55.0518 65.2089 54.5529 64.8376C54.0541 64.4662 53.4281 64.3083 52.8128 64.3985L53.9729 64.2298C54.5882 64.1397 55.1425 63.8087 55.5139 63.3098C55.8852 62.811 56.0432 62.1849 55.9531 61.5697C55.8628 60.9543 55.5319 60.4 55.033 60.0287C54.5342 59.6573 53.9082 59.4994 53.2929 59.5895L54.4516 59.4209C55.0669 59.3307 55.6212 58.9997 55.9926 58.5008C56.3639 58.002 56.522 57.376 56.4318 56.7607C56.3415 56.1453 56.0106 55.591 55.5117 55.2197C55.0129 54.8483 54.3869 54.6904 53.7716 54.7806L41.8879 56.5159Z" fill="white"/>
<path d="M39.5703 56.8552L41.8905 56.5166" stroke="#020064" stroke-linecap="round" stroke-linejoin="round"/>
<path d="M52.3344 69.2051L51.1743 69.3751" stroke="#020064" stroke-linecap="round" stroke-linejoin="round"/>
<path d="M52.8155 64.3965L51.6567 64.5665" stroke="#020064" stroke-linecap="round" stroke-linejoin="round"/>
<path d="M53.2983 59.5869L52.1382 59.7569" stroke="#020064" stroke-linecap="round" stroke-linejoin="round"/>
<path d="M27.5467 75.9301C27.5777 76.1395 27.5671 76.353 27.5156 76.5584C27.464 76.7637 27.3724 76.9569 27.246 77.1267C27.1198 77.2966 26.9611 77.4399 26.7794 77.5485C26.5976 77.657 26.3962 77.7287 26.1867 77.7593L16.0629 79.5708C15.4246 75.9593 15.106 72.2984 15.1109 68.6309C15.1117 66.1769 15.2521 63.725 15.5311 61.2869L23.9631 59.7352C24.1205 59.7115 24.2808 59.719 24.4352 59.7575C24.5896 59.7958 24.7348 59.8642 24.8626 59.9589C24.9905 60.0536 25.0985 60.1724 25.1803 60.3088C25.2621 60.4452 25.3162 60.5965 25.3395 60.7538L27.5467 75.9301Z" fill="#B0D9FF"/>
<path d="M15.5286 61.3004V61.2839L23.9606 59.7323C24.1178 59.7085 24.2783 59.7161 24.4326 59.7545C24.587 59.7928 24.7322 59.8614 24.8601 59.9559C24.9879 60.0505 25.0959 60.1695 25.1776 60.306C25.2595 60.4424 25.3136 60.5935 25.3369 60.7508L27.5537 75.9299C27.5847 76.1392 27.5741 76.3527 27.5225 76.5581C27.4709 76.7635 27.3793 76.9566 27.253 77.1264C27.1266 77.2964 26.9681 77.4396 26.7864 77.5483C26.6045 77.6568 26.4031 77.7284 26.1937 77.759L16.0698 79.5705" stroke="#020064" stroke-linecap="round" stroke-linejoin="round"/>
<path d="M27.6162 76.372L29.4944 76.1C29.9178 76.0358 30.2984 75.8066 30.5533 75.4627C30.8082 75.1186 30.9164 74.6876 30.8544 74.264L29.0334 61.8077C28.9696 61.3845 28.7407 61.0038 28.3969 60.749C28.0531 60.4941 27.6222 60.3857 27.1987 60.4477L25.3206 60.7197L27.6162 76.372Z" fill="white" stroke="#020064" stroke-linecap="round" stroke-linejoin="round"/>
<path d="M41.8879 56.5159C41.688 52.119 40.9019 42.7405 37.2857 43.2695C36.9429 43.3194 36.6132 43.4364 36.3156 43.6139C36.0181 43.7914 35.7584 44.0257 35.5514 44.3037C35.3446 44.5815 35.1944 44.8974 35.1098 45.2334C35.0251 45.5694 35.0076 45.9187 35.058 46.2615L35.1845 47.1319C36.1175 53.5103 34.325 60.585 28.9734 61.367L30.9182 74.7059L31.5982 74.6066C34.9438 74.117 36.8655 76.206 42.8563 75.3302L53.0127 73.8478C53.628 73.7576 54.1823 73.4266 54.5538 72.9277C54.925 72.4289 55.0831 71.8029 54.9929 71.1876C54.9027 70.5722 54.5717 70.0179 54.0729 69.6466C53.574 69.2752 52.948 69.1173 52.3327 69.2074L53.4928 69.0388C54.1081 68.9486 54.6624 68.6176 55.0338 68.1188C55.4051 67.6199 55.5632 66.9939 55.473 66.3786C55.3828 65.7632 55.0518 65.2089 54.5529 64.8376C54.0541 64.4662 53.4281 64.3083 52.8128 64.3985L53.9729 64.2298C54.5882 64.1397 55.1425 63.8087 55.5139 63.3098C55.8852 62.811 56.0432 62.1849 55.9531 61.5697C55.8628 60.9543 55.5319 60.4 55.033 60.0287C54.5342 59.6573 53.9082 59.4994 53.2929 59.5895L54.4516 59.4209C55.0669 59.3307 55.6212 58.9997 55.9926 58.5008C56.3639 58.002 56.522 57.376 56.4318 56.7607C56.3415 56.1453 56.0106 55.591 55.5117 55.2197C55.0129 54.8483 54.3869 54.6904 53.7716 54.7806L41.8879 56.5159Z" stroke="#020064" stroke-linejoin="round"/>
<path d="M93.7665 56.5159C93.9664 52.119 94.7525 42.7405 98.3687 43.2695C98.7116 43.3194 99.0411 43.4364 99.3387 43.6139C99.6362 43.7914 99.896 44.0257 100.103 44.3037C100.31 44.5815 100.46 44.8974 100.544 45.2334C100.629 45.5694 100.647 45.9187 100.596 46.2615L100.47 47.1319C99.537 53.5103 101.329 60.585 106.681 61.367L104.736 74.7059L104.056 74.6066C100.712 74.117 98.789 76.206 92.7982 75.3302L82.6444 73.8478C82.029 73.7576 81.4747 73.4266 81.1034 72.9277C80.732 72.4289 80.5741 71.8029 80.6643 71.1876C80.7544 70.5722 81.0853 70.0179 81.5842 69.6466C82.083 69.2752 82.709 69.1173 83.3244 69.2074L82.1643 69.0388C81.5489 68.9486 80.9946 68.6176 80.6233 68.1188C80.2519 67.6199 80.094 66.9939 80.1842 66.3786C80.2743 65.7632 80.6052 65.2089 81.1041 64.8376C81.6029 64.4662 82.2289 64.3083 82.8443 64.3985L81.6843 64.2298C81.0689 64.1397 80.5145 63.8087 80.1432 63.3098C79.7718 62.811 79.6139 62.1849 79.7041 61.5697C79.7943 60.9543 80.1251 60.4 80.624 60.0287C81.1228 59.6573 81.7489 59.4994 82.3643 59.5895L81.2042 59.4209C80.5888 59.3307 80.0344 58.9997 79.6632 58.5008C79.2917 58.002 79.1338 57.376 79.224 56.7607C79.3142 56.1453 79.6451 55.591 80.1439 55.2197C80.6428 54.8483 81.2688 54.6904 81.8842 54.7806L93.7665 56.5159Z" fill="white"/>
<path d="M96.0868 56.8552L93.7666 56.5166" stroke="#020064" stroke-linecap="round" stroke-linejoin="round"/>
<path d="M83.3232 69.2051L84.4833 69.3751" stroke="#020064" stroke-linecap="round" stroke-linejoin="round"/>
<path d="M82.8418 64.3965L84.0019 64.5665" stroke="#020064" stroke-linecap="round" stroke-linejoin="round"/>
<path d="M82.3604 59.5869L83.5204 59.7569" stroke="#020064" stroke-linecap="round" stroke-linejoin="round"/>
<path d="M120.565 68.2718C120.566 71.9225 120.252 75.5662 119.627 79.1627L109.48 77.7592C109.269 77.7306 109.066 77.6603 108.882 77.5526C108.698 77.4449 108.538 77.3019 108.41 77.1318C108.282 76.9617 108.189 76.7679 108.136 76.5616C108.084 76.3554 108.073 76.1406 108.103 75.93L110.318 60.751C110.368 60.4321 110.543 60.146 110.803 59.9551C111.064 59.7643 111.389 59.6844 111.709 59.7324L120.129 60.8802C120.421 63.3332 120.567 65.8015 120.565 68.2718Z" fill="#B0D9FF"/>
<path d="M119.627 79.1654L109.48 77.7592C109.269 77.7306 109.066 77.6603 108.882 77.5526C108.698 77.4449 108.538 77.3019 108.41 77.1318C108.282 76.9617 108.189 76.7679 108.136 76.5616C108.084 76.3554 108.073 76.1406 108.103 75.93L110.318 60.751C110.368 60.4321 110.543 60.146 110.803 59.9551C111.064 59.7643 111.389 59.6844 111.709 59.7324L120.129 60.8802" stroke="#020064" stroke-linecap="round" stroke-linejoin="round"/>
<path d="M108.043 76.3724L106.163 76.1004C105.738 76.0378 105.356 75.8093 105.1 75.4651C104.844 75.1209 104.734 74.6891 104.796 74.2644L106.624 61.8068C106.688 61.3835 106.917 61.0029 107.261 60.748C107.604 60.4931 108.035 60.3847 108.459 60.4468L110.338 60.7188L108.043 76.3724Z" fill="white" stroke="#020064" stroke-linecap="round" stroke-linejoin="round"/>
<path d="M93.7665 56.5159C93.9664 52.119 94.7525 42.7405 98.3687 43.2695C98.7116 43.3194 99.0411 43.4364 99.3387 43.6139C99.6363 43.7914 99.896 44.0257 100.103 44.3037C100.31 44.5815 100.46 44.8974 100.544 45.2334C100.629 45.5694 100.647 45.9187 100.596 46.2615L100.47 47.1319C99.537 53.5103 101.329 60.585 106.681 61.367L104.736 74.7059L104.056 74.6066C100.712 74.117 98.789 76.206 92.7982 75.3302L82.6444 73.8478C82.029 73.7576 81.4747 73.4266 81.1034 72.9277C80.732 72.4289 80.5741 71.8029 80.6643 71.1876C80.7544 70.5722 81.0853 70.0179 81.5842 69.6466C82.083 69.2752 82.709 69.1173 83.3244 69.2074L82.1643 69.0388C81.5489 68.9486 80.9946 68.6176 80.6233 68.1188C80.2519 67.6199 80.094 66.9939 80.1842 66.3786C80.2743 65.7632 80.6052 65.2089 81.1041 64.8376C81.6029 64.4662 82.2289 64.3083 82.8443 64.3985L81.6843 64.2298C81.0689 64.1397 80.5145 63.8087 80.1432 63.3098C79.7718 62.811 79.6139 62.1849 79.7041 61.5697C79.7943 60.9543 80.1251 60.4 80.624 60.0287C81.1228 59.6573 81.7489 59.4994 82.3643 59.5895L81.2042 59.4209C80.5888 59.3307 80.0344 58.9997 79.6632 58.5008C79.2917 58.002 79.1338 57.376 79.224 56.7607C79.3142 56.1453 79.6451 55.591 80.1439 55.2197C80.6428 54.8483 81.2688 54.6904 81.8842 54.7806L93.7665 56.5159Z" stroke="#020064" stroke-linejoin="round"/>
<path d="M64.014 89.9296C64.4696 84.0245 65.918 71.4404 70.7664 72.304C71.6929 72.4697 72.5159 72.9965 73.0543 73.7687C73.5926 74.5409 73.8023 75.4954 73.6373 76.4221L73.4292 77.5876C71.9033 86.1298 74.0154 95.7218 81.1812 97.0002L78.0002 114.862L77.0836 114.699C72.6051 113.9 69.93 116.628 61.9073 115.196L48.3182 112.771C47.4943 112.624 46.7626 112.156 46.284 111.469C45.8055 110.783 45.6191 109.934 45.7662 109.11C45.913 108.286 46.3813 107.555 47.0678 107.076C47.7542 106.598 48.6027 106.411 49.4266 106.558L47.8735 106.286C47.4655 106.213 47.076 106.061 46.727 105.838C46.378 105.614 46.0764 105.324 45.8395 104.984C45.6025 104.644 45.435 104.261 45.3462 103.856C45.2574 103.451 45.2492 103.033 45.3221 102.625C45.3949 102.217 45.5475 101.828 45.7708 101.479C45.9942 101.13 46.2842 100.828 46.6242 100.591C46.9642 100.354 47.3474 100.187 47.7522 100.098C48.157 100.009 48.5752 100.001 48.9832 100.074L47.4301 99.8018C47.0221 99.7291 46.6326 99.5766 46.2835 99.3533C45.9345 99.13 45.6329 98.8401 45.396 98.5002C45.1589 98.1603 44.9912 97.7771 44.9024 97.3723C44.8135 96.9676 44.8052 96.5493 44.8781 96.1414C44.9508 95.7335 45.1032 95.3439 45.3266 94.9949C45.5499 94.6458 45.8397 94.3443 46.1797 94.1073C46.5196 93.8703 46.9028 93.7027 47.3076 93.6137C47.7123 93.5249 48.1305 93.5166 48.5385 93.5894L46.9854 93.3174C46.1615 93.1703 45.4298 92.7021 44.9512 92.0157C44.4727 91.3292 44.2863 90.4808 44.4334 89.6569C44.5802 88.833 45.0485 88.1014 45.735 87.6228C46.4214 87.1442 47.2699 86.9579 48.0938 87.1049L64.014 89.9296Z" fill="white"/>
<path d="M67.1199 90.4846L64.0137 89.9297" stroke="#020064" stroke-linecap="round" stroke-linejoin="round"/>
<path d="M49.4263 106.559L50.9794 106.835" stroke="#020064" stroke-linecap="round" stroke-linejoin="round"/>
<path d="M48.9829 100.068L50.536 100.344" stroke="#020064" stroke-linecap="round" stroke-linejoin="round"/>
<path d="M48.5381 93.5791L50.0912 93.8565" stroke="#020064" stroke-linecap="round" stroke-linejoin="round"/>
<path d="M111.618 99.2297C104.373 108.349 94.6978 115.235 83.708 119.093L83.6455 119.078C83.2357 119.002 82.8727 118.766 82.6362 118.423C82.3996 118.08 82.3087 117.657 82.3834 117.247L86.122 96.2799C86.1571 96.0752 86.2325 95.8795 86.3437 95.704C86.4551 95.5287 86.6001 95.3772 86.7704 95.2582C86.9406 95.1394 87.1328 95.0555 87.3357 95.0114C87.5386 94.9672 87.7483 94.9639 87.9526 95.0015L111.618 99.2297Z" fill="#B0D9FF"/>
<path d="M83.7244 119.093H83.708L83.6455 119.078C83.2357 119.002 82.8727 118.766 82.6362 118.423C82.3996 118.08 82.3087 117.657 82.3834 117.247L86.122 96.2799C86.1571 96.0752 86.2325 95.8795 86.3437 95.704C86.4551 95.5287 86.6001 95.3772 86.7704 95.2582C86.9406 95.1394 87.1328 95.0555 87.3357 95.0114C87.5386 94.9672 87.7483 94.9639 87.9526 95.0015L111.617 99.2297" stroke="#020064" stroke-linecap="round" stroke-linejoin="round"/>
<path d="M82.375 117.247L79.2688 116.688C78.8571 116.614 78.4916 116.38 78.2523 116.037C78.0131 115.694 77.9199 115.27 77.9931 114.858L81.181 96.9961C81.2552 96.5846 81.4895 96.2192 81.8327 95.9801C82.1758 95.741 82.5997 95.6476 83.0115 95.7205L86.1177 96.2753L82.375 117.247Z" fill="white" stroke="#020064" stroke-linecap="round" stroke-linejoin="round"/>
<path d="M64.014 89.9296C64.4696 84.0245 65.918 71.4404 70.7664 72.304C71.6929 72.4697 72.5159 72.9965 73.0543 73.7687C73.5926 74.5409 73.8023 75.4954 73.6373 76.4221L73.4292 77.5876C71.9033 86.1298 74.0154 95.7218 81.1812 97.0002L78.0002 114.862L77.0836 114.699C72.6051 113.9 69.93 116.628 61.9073 115.196L48.3182 112.771C47.4943 112.624 46.7626 112.156 46.284 111.469C45.8055 110.783 45.6191 109.934 45.7662 109.11C45.913 108.286 46.3813 107.555 47.0678 107.076C47.7542 106.598 48.6027 106.411 49.4266 106.558L47.8735 106.286C47.4655 106.213 47.076 106.061 46.727 105.838C46.378 105.614 46.0764 105.324 45.8395 104.984C45.6025 104.644 45.435 104.261 45.3462 103.856C45.2574 103.451 45.2492 103.033 45.3221 102.625C45.3949 102.217 45.5475 101.828 45.7708 101.479C45.9942 101.13 46.2842 100.828 46.6242 100.591C46.9642 100.354 47.3474 100.187 47.7522 100.098C48.157 100.009 48.5752 100.001 48.9832 100.074L47.4301 99.8018C47.0221 99.7291 46.6326 99.5766 46.2835 99.3533C45.9345 99.13 45.6329 98.8401 45.396 98.5002C45.1589 98.1603 44.9912 97.7771 44.9024 97.3723C44.8135 96.9676 44.8052 96.5493 44.8781 96.1414C44.9508 95.7335 45.1032 95.3439 45.3266 94.9949C45.5499 94.6458 45.8397 94.3443 46.1797 94.1073C46.5196 93.8703 46.9028 93.7027 47.3076 93.6137C47.7123 93.5249 48.1305 93.5166 48.5385 93.5894L46.9854 93.3174C46.1615 93.1703 45.4298 92.7021 44.9512 92.0157C44.4727 91.3292 44.2863 90.4808 44.4334 89.6569C44.5802 88.833 45.0485 88.1014 45.735 87.6228C46.4214 87.1442 47.2699 86.9579 48.0938 87.1049L64.014 89.9296Z" stroke="#020064" stroke-linejoin="round"/>
</svg>
