<svg width="248" height="248" viewBox="0 0 248 248" fill="none" xmlns="http://www.w3.org/2000/svg">
<path d="M25.792 129.664C25.792 155.71 36.1389 180.69 54.5564 199.108C72.974 217.525 97.9536 227.872 124 227.872C150.046 227.872 175.026 217.525 193.444 199.108C211.861 180.69 222.208 155.71 222.208 129.664C222.208 103.618 211.861 78.6381 193.444 60.2205C175.026 41.8029 150.046 31.4561 124 31.4561C97.9536 31.4561 72.974 41.8029 54.5564 60.2205C36.1389 78.6381 25.792 103.618 25.792 129.664Z" fill="#D9EDFF"/>
<path d="M66.4551 172.581C66.4551 174.017 67.7409 175.44 70.2392 176.767C72.7376 178.094 76.3994 179.3 81.0156 180.315C85.6319 181.331 91.1122 182.137 97.1437 182.686C103.175 183.236 109.64 183.519 116.168 183.519C122.696 183.519 129.161 183.236 135.192 182.686C141.224 182.137 146.704 181.331 151.32 180.315C155.937 179.3 159.598 178.094 162.097 176.767C164.595 175.44 165.881 174.017 165.881 172.581C165.881 171.145 164.595 169.722 162.097 168.395C159.598 167.068 155.937 165.862 151.32 164.847C146.704 163.831 141.224 163.025 135.192 162.476C129.161 161.926 122.696 161.643 116.168 161.643C109.64 161.643 103.175 161.926 97.1437 162.476C91.1122 163.025 85.6319 163.831 81.0156 164.847C76.3994 165.862 72.7376 167.068 70.2392 168.395C67.7409 169.722 66.4551 171.145 66.4551 172.581Z" fill="#B0D9FF"/>
<path d="M162.367 81.1323H68.8782C67.8038 81.1343 66.774 81.5625 66.015 82.3229C65.2559 83.0833 64.8296 84.1139 64.8296 85.1883V142.475H166.423V85.1883C166.423 84.1126 165.996 83.0809 165.235 82.3203C164.475 81.5597 163.443 81.1323 162.367 81.1323Z" fill="#B0D9FF" stroke="#020064" stroke-width="0.72" stroke-linecap="round" stroke-linejoin="round"/>
<path d="M163.705 18.0875L69.5486 25.6987C69.0217 25.7418 68.5334 25.9923 68.191 26.3951C67.8485 26.7978 67.6798 27.32 67.7219 27.847L76.0843 131.122L174.214 123.177L165.851 19.9117C165.831 19.6509 165.759 19.3968 165.639 19.1639C165.52 18.9309 165.356 18.7238 165.157 18.5543C164.958 18.3849 164.727 18.2564 164.478 18.1763C164.229 18.0962 163.966 18.066 163.705 18.0875Z" fill="#B0D9FF"/>
<path d="M163.705 18.0875L69.5486 25.6987C69.0217 25.7418 68.5334 25.9923 68.191 26.3951C67.8485 26.7978 67.6798 27.32 67.7219 27.847L76.0843 131.122L174.214 123.177L165.851 19.9117C165.831 19.6509 165.759 19.3968 165.639 19.1639C165.52 18.9309 165.356 18.7238 165.157 18.5543C164.958 18.3849 164.727 18.2564 164.478 18.1763C164.229 18.0962 163.966 18.066 163.705 18.0875Z" stroke="#020064" stroke-width="0.72" stroke-linecap="round" stroke-linejoin="round"/>
<path d="M183.298 55.9567L99.8629 38.596C99.619 38.5453 99.3675 38.5433 99.1228 38.5899C98.878 38.6366 98.6449 38.731 98.4367 38.8678C98.2285 39.0046 98.0494 39.1812 97.9094 39.3873C97.7695 39.5934 97.6716 39.8251 97.6213 40.0691L76.5066 141.606L163.651 159.738L184.766 58.2007C184.817 57.957 184.82 57.7055 184.774 57.4608C184.727 57.2161 184.633 56.9828 184.497 56.7744C184.361 56.566 184.185 56.3865 183.979 56.2462C183.773 56.1059 183.542 56.0075 183.298 55.9567Z" fill="white" stroke="#020064" stroke-width="0.72" stroke-linecap="round" stroke-linejoin="round"/>
<path d="M177.187 116.811C177.341 116.045 177.322 115.254 177.133 114.496C176.944 113.738 176.589 113.031 176.094 112.427C175.598 111.823 174.975 111.336 174.269 111.002C173.562 110.668 172.79 110.496 172.009 110.496H102.799C101.58 110.497 100.398 110.074 99.4555 109.301C98.5127 108.528 97.8671 107.452 97.6286 106.256L96.1555 98.9103C95.9173 97.7148 95.2716 96.6391 94.3286 95.8667C93.3856 95.0943 92.2038 94.6732 90.9848 94.6751H56.9116C56.1308 94.6754 55.3599 94.849 54.6543 95.1834C53.9488 95.5178 53.3263 96.0045 52.8316 96.6086C52.337 97.2127 51.9826 97.919 51.794 98.6767C51.6054 99.4343 51.5872 100.224 51.7409 100.99L65.4532 169.556C65.6922 170.752 66.3379 171.827 67.2806 172.601C68.2233 173.374 69.4047 173.796 70.6239 173.796H161.466C162.685 173.797 163.866 173.375 164.809 172.603C165.751 171.831 166.397 170.756 166.637 169.561L177.187 116.811Z" fill="white"/>
<path d="M177.187 116.811C177.341 116.045 177.322 115.254 177.133 114.496C176.944 113.738 176.589 113.031 176.094 112.427C175.598 111.823 174.975 111.336 174.269 111.002C173.562 110.668 172.79 110.496 172.009 110.496H102.799C101.58 110.497 100.398 110.074 99.4555 109.301C98.5127 108.528 97.8671 107.452 97.6286 106.256L96.1555 98.9103C95.9173 97.7148 95.2716 96.6391 94.3286 95.8667C93.3856 95.0943 92.2038 94.6732 90.9848 94.6751H56.9116C56.1308 94.6754 55.3599 94.849 54.6543 95.1834C53.9488 95.5178 53.3263 96.0045 52.8316 96.6086C52.337 97.2127 51.9826 97.919 51.794 98.6767C51.6054 99.4343 51.5872 100.224 51.7409 100.99L65.4532 169.556C65.6922 170.752 66.3379 171.827 67.2806 172.601C68.2233 173.374 69.4047 173.796 70.6239 173.796H161.466C162.685 173.797 163.866 173.375 164.809 172.603C165.751 171.831 166.397 170.756 166.637 169.561L177.187 116.811Z" stroke="#020064" stroke-width="0.72" stroke-linecap="round" stroke-linejoin="round"/>
<path d="M120.6 68.0412C120.6 68.9476 120.96 69.8169 121.601 70.4578C122.242 71.0987 123.111 71.4588 124.017 71.4588C124.924 71.4588 125.793 71.0987 126.434 70.4578C127.075 69.8169 127.435 68.9476 127.435 68.0412C127.435 67.1348 127.075 66.2655 126.434 65.6245C125.793 64.9836 124.924 64.6235 124.017 64.6235C123.111 64.6235 122.242 64.9836 121.601 65.6245C120.96 66.2655 120.6 67.1348 120.6 68.0412Z" fill="#020064"/>
<path d="M148.91 72.6962C148.91 73.6026 149.27 74.4719 149.911 75.1128C150.552 75.7538 151.422 76.1138 152.328 76.1138C153.234 76.1138 154.104 75.7538 154.745 75.1128C155.386 74.4719 155.746 73.6026 155.746 72.6962C155.746 71.7898 155.386 70.9205 154.745 70.2796C154.104 69.6386 153.234 69.2786 152.328 69.2786C151.422 69.2786 150.552 69.6386 149.911 70.2796C149.27 70.9205 148.91 71.7898 148.91 72.6962Z" fill="#020064"/>
<path d="M116.742 89.313C119.084 86.4549 122.142 84.2697 125.605 82.9807C129.068 81.6916 132.811 81.345 136.451 81.9762C140.092 82.6075 143.499 84.1939 146.326 86.5734C149.152 88.9529 151.297 92.0402 152.539 95.5198" stroke="#020064" stroke-width="0.72" stroke-linecap="round" stroke-linejoin="round"/>
<path d="M167.771 190.941L174.926 183.789L187.442 196.308L180.29 203.46L167.771 190.941Z" fill="white" stroke="#020064" stroke-width="0.72" stroke-linecap="round" stroke-linejoin="round"/>
<path d="M211.759 227.438L211.417 227.779C210.037 229.153 208.169 229.924 206.221 229.924C204.273 229.924 202.405 229.153 201.024 227.779L178.437 205.191C177.979 204.731 177.721 204.108 177.721 203.459C177.721 202.81 177.979 202.187 178.437 201.727L185.709 194.464C186.169 194.007 186.791 193.75 187.44 193.75C188.088 193.75 188.711 194.007 189.171 194.464L211.759 217.052C212.442 217.733 212.984 218.542 213.354 219.433C213.724 220.325 213.915 221.28 213.915 222.245C213.915 223.21 213.724 224.165 213.354 225.056C212.984 225.947 212.442 226.756 211.759 227.438Z" fill="#B0D9FF"/>
<path d="M211.759 227.438L211.417 227.779C210.037 229.153 208.169 229.924 206.221 229.924C204.273 229.924 202.405 229.153 201.024 227.779L178.437 205.191C177.979 204.731 177.721 204.108 177.721 203.459C177.721 202.81 177.979 202.187 178.437 201.727L185.709 194.464C186.169 194.007 186.791 193.75 187.44 193.75C188.088 193.75 188.711 194.007 189.171 194.464L211.759 217.052C212.442 217.733 212.984 218.542 213.354 219.433C213.724 220.325 213.915 221.28 213.915 222.245C213.915 223.21 213.724 224.165 213.354 225.056C212.984 225.947 212.442 226.756 211.759 227.438Z" stroke="#020064" stroke-width="0.72" stroke-linecap="round" stroke-linejoin="round"/>
<path d="M113.951 183.917C116.536 188.196 119.942 191.923 123.973 194.882C128.004 197.84 132.58 199.973 137.438 201.157C142.296 202.342 147.34 202.554 152.28 201.782C157.22 201.01 161.959 199.269 166.224 196.659C170.489 194.049 174.196 190.622 177.132 186.574C180.068 182.527 182.175 177.939 183.331 173.075C184.488 168.21 184.672 163.165 183.872 158.229C183.072 153.293 181.304 148.564 178.67 144.314C176.084 140.034 172.678 136.308 168.647 133.349C164.617 130.39 160.041 128.258 155.183 127.073C150.325 125.889 145.281 125.677 140.341 126.449C135.4 127.221 130.662 128.962 126.397 131.572C122.131 134.182 118.424 137.609 115.489 141.656C112.553 145.704 110.446 150.292 109.289 155.156C108.133 160.021 107.949 165.066 108.749 170.002C109.549 174.938 111.317 179.666 113.951 183.917Z" fill="white" stroke="#020064" stroke-width="0.72" stroke-linecap="round" stroke-linejoin="round"/>
<path d="M167.771 142.66C172.015 146.904 174.905 152.312 176.076 158.199C177.247 164.086 176.646 170.188 174.349 175.733C172.052 181.278 168.162 186.018 163.171 189.352C158.18 192.687 152.313 194.467 146.31 194.467C140.308 194.467 134.441 192.687 129.45 189.352C124.459 186.018 120.569 181.278 118.272 175.733C115.975 170.188 115.374 164.086 116.545 158.199C117.715 152.312 120.605 146.904 124.85 142.66C130.542 136.969 138.261 133.771 146.31 133.771C154.36 133.771 162.079 136.969 167.771 142.66Z" fill="#B0D9FF"/>
<path d="M167.771 142.659C162.931 137.821 156.598 134.761 149.8 133.975C143.002 133.189 136.137 134.723 130.321 138.329C124.504 141.934 120.077 147.399 117.757 153.838C115.437 160.276 115.36 167.309 117.54 173.796H161.466C162.685 173.797 163.866 173.375 164.809 172.603C165.751 171.831 166.397 170.756 166.637 169.561C167.619 164.621 169.36 155.947 171.201 146.742C170.179 145.284 169.031 143.918 167.771 142.659Z" fill="white" stroke="#020064" stroke-width="0.72" stroke-linecap="round" stroke-linejoin="round"/>
<path d="M167.771 142.66C172.015 146.904 174.905 152.312 176.076 158.199C177.247 164.086 176.646 170.188 174.349 175.733C172.052 181.278 168.162 186.018 163.171 189.352C158.18 192.687 152.313 194.467 146.31 194.467C140.308 194.467 134.441 192.687 129.45 189.352C124.459 186.018 120.569 181.278 118.272 175.733C115.975 170.188 115.374 164.086 116.545 158.199C117.715 152.312 120.605 146.904 124.85 142.66C130.542 136.969 138.261 133.771 146.31 133.771C154.36 133.771 162.079 136.969 167.771 142.66Z" stroke="#020064" stroke-width="0.72" stroke-linecap="round" stroke-linejoin="round"/>
</svg>
