<svg width="24" height="24" viewBox="0 0 24 24" fill="none" xmlns="http://www.w3.org/2000/svg">
<circle cx="12" cy="12" r="12" fill="#2D727B"/>
<path d="M5.33325 16.0003V14.667C5.75547 14.667 6.06947 14.5559 6.27525 14.3337C6.48103 14.1114 6.91147 14.0003 7.56659 14.0003C8.22214 14.0003 8.65281 14.1114 8.85859 14.3337C9.06436 14.5559 9.36703 14.667 9.76658 14.667C10.1888 14.667 10.5028 14.5559 10.7086 14.3337C10.9144 14.1114 11.3448 14.0003 11.9999 14.0003C12.6333 14.0003 13.0639 14.1114 13.2919 14.3337C13.5199 14.5559 13.8337 14.667 14.2333 14.667C14.6555 14.667 14.9639 14.5559 15.1586 14.3337C15.3533 14.1114 15.7781 14.0003 16.4333 14.0003C17.0888 14.0003 17.5195 14.1114 17.7253 14.3337C17.931 14.5559 18.2448 14.667 18.6666 14.667V16.0003C18.0333 16.0003 17.6028 15.8892 17.3753 15.667C17.1477 15.4448 16.8337 15.3337 16.4333 15.3337C16.0333 15.3337 15.7306 15.4448 15.5253 15.667C15.3199 15.8892 14.8893 16.0003 14.2333 16.0003C13.5999 16.0003 13.1695 15.8892 12.9419 15.667C12.7144 15.4448 12.4004 15.3337 11.9999 15.3337C11.5777 15.3337 11.2637 15.4448 11.0579 15.667C10.8521 15.8892 10.4217 16.0003 9.76658 16.0003C9.11103 16.0003 8.68592 15.8892 8.49125 15.667C8.29659 15.4448 7.98836 15.3337 7.56659 15.3337C7.14436 15.3337 6.83059 15.4448 6.62525 15.667C6.41992 15.8892 5.98925 16.0003 5.33325 16.0003ZM5.33325 13.3337V12.0003C5.75547 12.0003 6.06947 11.8892 6.27525 11.667C6.48103 11.4448 6.91147 11.3337 7.56659 11.3337C8.19992 11.3337 8.62503 11.4448 8.84192 11.667C9.05881 11.8892 9.36703 12.0003 9.76658 12.0003C10.1888 12.0003 10.5026 11.8892 10.7079 11.667C10.9133 11.4448 11.3439 11.3337 11.9999 11.3337C12.6333 11.3337 13.061 11.4448 13.2833 11.667C13.5055 11.8892 13.811 12.0003 14.1999 12.0003C14.6221 12.0003 14.9359 11.8892 15.1413 11.667C15.3466 11.4448 15.7773 11.3337 16.4333 11.3337C17.0666 11.3337 17.4973 11.4448 17.7253 11.667C17.9533 11.8892 18.267 12.0003 18.6666 12.0003V13.3337C18.011 13.3337 17.5748 13.2225 17.3579 13.0003C17.141 12.7781 16.8328 12.667 16.4333 12.667C16.0333 12.667 15.7306 12.7781 15.5253 13.0003C15.3199 13.2225 14.8893 13.3337 14.2333 13.3337C13.5999 13.3337 13.1695 13.2225 12.9419 13.0003C12.7144 12.7781 12.4004 12.667 11.9999 12.667C11.5777 12.667 11.2693 12.7781 11.0746 13.0003C10.8799 13.2225 10.455 13.3337 9.79992 13.3337C9.14436 13.3337 8.70836 13.2225 8.49192 13.0003C8.27547 12.7781 7.96703 12.667 7.56659 12.667C7.16659 12.667 6.85281 12.7781 6.62525 13.0003C6.3977 13.2225 5.96703 13.3337 5.33325 13.3337ZM5.33325 10.667V9.33366C5.75547 9.33366 6.06947 9.22255 6.27525 9.00033C6.48103 8.7781 6.91147 8.66699 7.56659 8.66699C8.19992 8.66699 8.62503 8.7781 8.84192 9.00033C9.05881 9.22255 9.36703 9.33366 9.76658 9.33366C10.1888 9.33366 10.5026 9.22255 10.7079 9.00033C10.9133 8.7781 11.3439 8.66699 11.9999 8.66699C12.6333 8.66699 13.061 8.7781 13.2833 9.00033C13.5055 9.22255 13.811 9.33366 14.1999 9.33366C14.6221 9.33366 14.9359 9.22255 15.1413 9.00033C15.3466 8.7781 15.7773 8.66699 16.4333 8.66699C17.0666 8.66699 17.4973 8.7781 17.7253 9.00033C17.9533 9.22255 18.267 9.33366 18.6666 9.33366V10.667C18.011 10.667 17.5748 10.5559 17.3579 10.3337C17.141 10.1114 16.8328 10.0003 16.4333 10.0003C16.0333 10.0003 15.7306 10.1114 15.5253 10.3337C15.3199 10.5559 14.8893 10.667 14.2333 10.667C13.5999 10.667 13.1695 10.5559 12.9419 10.3337C12.7144 10.1114 12.4004 10.0003 11.9999 10.0003C11.5777 10.0003 11.2693 10.1114 11.0746 10.3337C10.8799 10.5559 10.455 10.667 9.79992 10.667C9.14436 10.667 8.70836 10.5559 8.49192 10.3337C8.27547 10.1114 7.96703 10.0003 7.56659 10.0003C7.16659 10.0003 6.85281 10.1114 6.62525 10.3337C6.3977 10.5559 5.96703 10.667 5.33325 10.667Z" fill="white"/>
</svg>
