<svg width="24" height="24" viewBox="0 0 24 24" fill="none" xmlns="http://www.w3.org/2000/svg">
<circle cx="12" cy="12" r="12" fill="#C12C2C"/>
<path d="M15.7734 11.4667C15.62 11.2667 15.4334 11.0933 15.26 10.92C14.8134 10.52 14.3067 10.2333 13.88 9.81333C12.8867 8.84 12.6667 7.23333 13.3 6C12.6667 6.15333 12.1134 6.5 11.64 6.88C9.91337 8.26667 9.23337 10.7133 10.0467 12.8133C10.0734 12.88 10.1 12.9467 10.1 13.0333C10.1 13.18 10 13.3133 9.8667 13.3667C9.71337 13.4333 9.55337 13.3933 9.4267 13.2867C9.38864 13.2552 9.35695 13.2167 9.33337 13.1733C8.58003 12.22 8.46003 10.8533 8.9667 9.76C7.85337 10.6667 7.2467 12.2 7.33337 13.6467C7.37337 13.98 7.41337 14.3133 7.5267 14.6467C7.62003 15.0467 7.80003 15.4467 8.00003 15.8C8.72003 16.9533 9.9667 17.78 11.3067 17.9467C12.7334 18.1267 14.26 17.8667 15.3534 16.88C16.5734 15.7733 17 14 16.3734 12.48L16.2867 12.3067C16.1467 12 15.7734 11.4667 15.7734 11.4667ZM13.6667 15.6667C13.48 15.8267 13.1734 16 12.9334 16.0667C12.1867 16.3333 11.44 15.96 11 15.52C11.7934 15.3333 12.2667 14.7467 12.4067 14.1533C12.52 13.62 12.3067 13.18 12.22 12.6667C12.14 12.1733 12.1534 11.7533 12.3334 11.2933C12.46 11.5467 12.5934 11.8 12.7534 12C13.2667 12.6667 14.0734 12.96 14.2467 13.8667C14.2734 13.96 14.2867 14.0533 14.2867 14.1533C14.3067 14.7 14.0667 15.3 13.6667 15.6667Z" fill="white"/>
</svg>
