<svg width="24" height="24" viewBox="0 0 24 24" fill="none" xmlns="http://www.w3.org/2000/svg">
<circle cx="12" cy="12" r="12" fill="#BCABAE"/>
<path d="M10.6667 18.6663L9.53341 10.183C9.47786 9.78301 9.58341 9.43012 9.85008 9.12434C10.1167 8.81856 10.4501 8.6659 10.8501 8.66634H13.1501C13.5501 8.66634 13.8834 8.81901 14.1501 9.12434C14.4167 9.42968 14.5223 9.78256 14.4667 10.183L13.3334 18.6663H10.6667ZM12.0001 7.99968C11.6334 7.99968 11.3194 7.86901 11.0581 7.60768C10.7967 7.34634 10.6663 7.03256 10.6667 6.66634C10.6667 6.29968 10.7974 5.98568 11.0587 5.72434C11.3201 5.46301 11.6339 5.33256 12.0001 5.33301C12.3667 5.33301 12.6807 5.46368 12.9421 5.72501C13.2034 5.98634 13.3339 6.30012 13.3334 6.66634C13.3334 7.03301 13.2027 7.34701 12.9414 7.60834C12.6801 7.86968 12.3663 8.00012 12.0001 7.99968Z" fill="white"/>
</svg>
