<svg width="24" height="24" viewBox="0 0 24 24" fill="none" xmlns="http://www.w3.org/2000/svg">
<circle cx="12" cy="12" r="12" fill="#32021F"/>
<path d="M8.00008 13.3337C7.63341 13.3337 7.31964 13.203 7.05875 12.9417C6.79741 12.6808 6.66675 12.367 6.66675 12.0003C6.66675 11.6337 6.79741 11.3197 7.05875 11.0583C7.31964 10.7974 7.63341 10.667 8.00008 10.667C8.36675 10.667 8.68053 10.7974 8.94141 11.0583C9.20275 11.3197 9.33341 11.6337 9.33341 12.0003C9.33341 12.367 9.20275 12.6808 8.94141 12.9417C8.68053 13.203 8.36675 13.3337 8.00008 13.3337ZM12.0001 13.3337C11.6334 13.3337 11.3196 13.203 11.0587 12.9417C10.7974 12.6808 10.6667 12.367 10.6667 12.0003C10.6667 11.6337 10.7974 11.3197 11.0587 11.0583C11.3196 10.7974 11.6334 10.667 12.0001 10.667C12.3667 10.667 12.6807 10.7974 12.9421 11.0583C13.203 11.3197 13.3334 11.6337 13.3334 12.0003C13.3334 12.367 13.203 12.6808 12.9421 12.9417C12.6807 13.203 12.3667 13.3337 12.0001 13.3337ZM16.0001 13.3337C15.6334 13.3337 15.3194 13.203 15.0581 12.9417C14.7972 12.6808 14.6667 12.367 14.6667 12.0003C14.6667 11.6337 14.7972 11.3197 15.0581 11.0583C15.3194 10.7974 15.6334 10.667 16.0001 10.667C16.3667 10.667 16.6807 10.7974 16.9421 11.0583C17.203 11.3197 17.3334 11.6337 17.3334 12.0003C17.3334 12.367 17.203 12.6808 16.9421 12.9417C16.6807 13.203 16.3667 13.3337 16.0001 13.3337Z" fill="white"/>
</svg>
