<svg width="24" height="24" viewBox="0 0 24 24" fill="none" xmlns="http://www.w3.org/2000/svg">
<circle cx="12" cy="12" r="12" fill="#E87C38"/>
<path d="M17.8333 7.36068C17.8333 7.03741 17.5733 6.77734 17.25 6.77734C16.9267 6.77734 16.6667 7.03741 16.6667 7.36068V7.55512H5.77778C5.34757 7.55512 5 7.90269 5 8.3329V11.0551C5 11.4853 5.34757 11.8329 5.77778 11.8329H6.02083C6.52639 11.8329 6.89826 12.3093 6.77431 12.8003L5.80208 16.6989C5.74375 16.9322 5.79722 17.1777 5.94306 17.3673C6.08889 17.5569 6.31493 17.6662 6.55556 17.6662H8.88889C9.24618 17.6662 9.55729 17.4232 9.64236 17.078L10.2743 14.5551H12.8118C13.3878 14.5551 13.9007 14.193 14.0927 13.651L14.7441 11.8329H15.5C15.7066 11.8329 15.9035 11.7503 16.0493 11.6044L16.601 11.0551H18.2222C18.6524 11.0551 19 10.7076 19 10.2773V8.3329C19 7.90269 18.6524 7.55512 18.2222 7.55512H17.8333V7.36068ZM12.8118 13.3885H10.566L10.9549 11.8329H13.5069L12.9965 13.2596C12.9698 13.3374 12.8944 13.3885 12.8142 13.3885H12.8118ZM6.94444 9.11068H16.2778C16.4917 9.11068 16.6667 9.28568 16.6667 9.49957C16.6667 9.71346 16.4917 9.88846 16.2778 9.88846H6.94444C6.73056 9.88846 6.55556 9.71346 6.55556 9.49957C6.55556 9.28568 6.73056 9.11068 6.94444 9.11068Z" fill="white"/>
</svg>
