<svg width="32" height="32" viewBox="0 0 32 32" fill="none" xmlns="http://www.w3.org/2000/svg">
    <path d="M16.0003 2.66699C8.64033 2.66699 2.66699 8.64033 2.66699 16.0003C2.66699 23.3603 8.64033 29.3337 16.0003 29.3337C23.3603 29.3337 29.3337 23.3603 29.3337 16.0003C29.3337 8.64033 23.3603 2.66699 16.0003 2.66699ZM20.667 17.0003H13.747L16.0403 19.2937C16.427 19.6803 16.427 20.3203 16.0403 20.707C15.8403 20.907 15.587 21.0003 15.3337 21.0003C15.0803 21.0003 14.827 20.907 14.627 20.707L10.627 16.707C10.2403 16.3203 10.2403 15.6803 10.627 15.2937L14.627 11.2937C15.0137 10.907 15.6537 10.907 16.0403 11.2937C16.427 11.6803 16.427 12.3203 16.0403 12.707L13.747 15.0003H20.667C21.2137 15.0003 21.667 15.4537 21.667 16.0003C21.667 16.547 21.2137 17.0003 20.667 17.0003Z"
          fill="#0880DF"/>
</svg>
