<svg width="40" height="40" viewBox="0 0 40 40" fill="none" xmlns="http://www.w3.org/2000/svg">
    <path d="M36.6663 19.9997C36.6663 10.8163 29.183 3.33301 19.9997 3.33301C10.8163 3.33301 3.33301 10.8163 3.33301 19.9997C3.33301 24.833 5.41634 29.183 8.71634 32.233C8.71634 32.2497 8.71634 32.2497 8.69967 32.2663C8.86634 32.433 9.06634 32.5663 9.23301 32.7163C9.33301 32.7997 9.41634 32.883 9.51634 32.9497C9.81634 33.1997 10.1497 33.433 10.4663 33.6663C10.583 33.7497 10.683 33.8163 10.7997 33.8997C11.1163 34.1163 11.4497 34.3163 11.7997 34.4997C11.9163 34.5663 12.0497 34.6497 12.1663 34.7163C12.4997 34.8997 12.8497 35.0663 13.2163 35.2163C13.3497 35.283 13.483 35.3497 13.6163 35.3997C13.983 35.5497 14.3497 35.683 14.7163 35.7997C14.8497 35.8497 14.983 35.8997 15.1163 35.933C15.5163 36.0497 15.9163 36.1497 16.3163 36.2497C16.433 36.283 16.5497 36.3163 16.683 36.333C17.1497 36.433 17.6163 36.4997 18.0997 36.5497C18.1663 36.5497 18.233 36.5663 18.2997 36.583C18.8663 36.633 19.433 36.6663 19.9997 36.6663C20.5663 36.6663 21.133 36.633 21.683 36.583C21.7497 36.583 21.8163 36.5663 21.883 36.5497C22.3663 36.4997 22.833 36.433 23.2997 36.333C23.4163 36.3163 23.533 36.2663 23.6663 36.2497C24.0663 36.1497 24.483 36.0663 24.8663 35.933C24.9997 35.883 25.133 35.833 25.2663 35.7997C25.633 35.6663 26.0163 35.5497 26.3663 35.3997C26.4997 35.3497 26.633 35.283 26.7663 35.2163C27.1163 35.0663 27.4663 34.8997 27.8163 34.7163C27.9497 34.6497 28.0663 34.5663 28.183 34.4997C28.5163 34.2997 28.8497 34.1163 29.183 33.8997C29.2997 33.833 29.3997 33.7497 29.5163 33.6663C29.8497 33.433 30.1663 33.1997 30.4663 32.9497C30.5663 32.8663 30.6497 32.783 30.7497 32.7163C30.933 32.5663 31.1163 32.4163 31.283 32.2663C31.283 32.2497 31.283 32.2497 31.2663 32.233C34.583 29.183 36.6663 24.833 36.6663 19.9997ZM28.233 28.283C23.7163 25.2497 16.3163 25.2497 11.7663 28.283C11.033 28.7663 10.433 29.333 9.93301 29.9497C7.39967 27.383 5.83301 23.8663 5.83301 19.9997C5.83301 12.183 12.183 5.83301 19.9997 5.83301C27.8163 5.83301 34.1663 12.183 34.1663 19.9997C34.1663 23.8663 32.5997 27.383 30.0663 29.9497C29.583 29.333 28.9663 28.7663 28.233 28.283Z"
          fill="#0880DF"/>
    <path d="M20 11.5498C16.55 11.5498 13.75 14.3498 13.75 17.7998C13.75 21.1831 16.4 23.9331 19.9167 24.0331C19.9667 24.0331 20.0333 24.0331 20.0667 24.0331C20.1 24.0331 20.15 24.0331 20.1833 24.0331C20.2 24.0331 20.2167 24.0331 20.2167 24.0331C23.5833 23.9165 26.2333 21.1831 26.25 17.7998C26.25 14.3498 23.45 11.5498 20 11.5498Z"
          fill="#0880DF"/>
</svg>
