<svg width="248" height="248" viewBox="0 0 248 248" fill="none" xmlns="http://www.w3.org/2000/svg">
<path d="M124 222.208C178.238 222.208 222.208 178.238 222.208 124C222.208 69.7622 178.238 25.792 124 25.792C69.7622 25.792 25.792 69.7622 25.792 124C25.792 178.238 69.7622 222.208 124 222.208Z" fill="#D9EDFF"/>
<path d="M124 207.477C138.916 207.477 151.008 205.827 151.008 203.794C151.008 201.761 138.916 200.111 124 200.111C109.085 200.111 96.9932 201.761 96.9932 203.794C96.9932 205.827 109.085 207.477 124 207.477Z" fill="#B0D9FF"/>
<path d="M165.68 41.832H82.3184C79.3204 41.832 76.4453 43.023 74.3254 45.1428C72.2056 47.2627 71.0146 50.1378 71.0146 53.1358V168.994C71.0146 171.992 72.2056 174.867 74.3254 176.987C76.4453 179.107 79.3204 180.298 82.3184 180.298H165.68C167.164 180.298 168.634 180.006 170.006 179.438C171.377 178.869 172.623 178.037 173.673 176.987C174.722 175.938 175.555 174.691 176.123 173.32C176.691 171.949 176.984 170.479 176.984 168.994V53.1358C176.984 51.6513 176.691 50.1815 176.123 48.81C175.555 47.4386 174.722 46.1925 173.673 45.1428C172.623 44.0932 171.377 43.2605 170.006 42.6925C168.634 42.1244 167.164 41.832 165.68 41.832Z" fill="#B0D9FF" stroke="#020064" stroke-width="0.72" stroke-linecap="round" stroke-linejoin="round"/>
<path d="M161.442 50.3096H86.5584C86.1872 50.3092 85.8195 50.3821 85.4765 50.524C85.1335 50.6659 84.8219 50.8741 84.5594 51.1365C84.2969 51.399 84.0888 51.7107 83.9469 52.0537C83.805 52.3967 83.7321 52.7643 83.7324 53.1355V166.168C83.7321 166.539 83.805 166.907 83.9469 167.25C84.0888 167.593 84.2969 167.904 84.5594 168.167C84.8219 168.429 85.1335 168.638 85.4765 168.779C85.8195 168.921 86.1872 168.994 86.5584 168.994H161.442C161.813 168.994 162.181 168.921 162.524 168.779C162.867 168.638 163.178 168.429 163.441 168.167C163.703 167.904 163.912 167.593 164.053 167.25C164.195 166.907 164.268 166.539 164.268 166.168V53.1355C164.268 52.7643 164.195 52.3967 164.053 52.0537C163.912 51.7107 163.703 51.399 163.441 51.1365C163.178 50.8741 162.867 50.6659 162.524 50.524C162.181 50.3821 161.813 50.3092 161.442 50.3096Z" fill="white" stroke="#020064" stroke-width="0.72" stroke-linecap="round" stroke-linejoin="round"/>
<path d="M134.526 39.0059C134.543 38.7604 134.597 38.5419 134.597 38.2988C134.597 35.4884 133.481 32.7931 131.493 30.8058C129.506 28.8186 126.811 27.7021 124 27.7021C121.19 27.7021 118.495 28.8186 116.507 30.8058C114.52 32.7931 113.404 35.4884 113.404 38.2988C113.404 38.5443 113.458 38.7677 113.475 39.0059H100.688C100.317 39.0056 99.9494 39.0784 99.6064 39.2203C99.2634 39.3622 98.9518 39.5704 98.6893 39.8329C98.4268 40.0953 98.2187 40.407 98.0768 40.75C97.9349 41.093 97.862 41.4606 97.8623 41.8318V53.1257C97.8623 53.8752 98.16 54.594 98.69 55.124C99.22 55.6539 99.9388 55.9517 100.688 55.9517H147.325C147.696 55.952 148.064 55.8791 148.407 55.7372C148.75 55.5953 149.061 55.3872 149.324 55.1247C149.586 54.8622 149.794 54.5506 149.936 54.2076C150.078 53.8646 150.151 53.4969 150.151 53.1257V41.8318C150.15 41.0825 149.852 40.3641 149.322 39.8343C148.792 39.3045 148.074 39.0065 147.325 39.0059H134.526Z" fill="white" stroke="#020064" stroke-width="0.72" stroke-linecap="round" stroke-linejoin="round"/>
<path d="M101.52 86.7693C102.334 86.7693 103.115 86.446 103.69 85.8705C104.266 85.2949 104.589 84.5143 104.589 83.7004C104.589 82.8864 104.266 82.1058 103.69 81.5302C103.115 80.9547 102.334 80.6313 101.52 80.6313C100.706 80.6313 99.9256 80.9547 99.3501 81.5302C98.7745 82.1058 98.4512 82.8864 98.4512 83.7004C98.4512 84.5143 98.7745 85.2949 99.3501 85.8705C99.9256 86.446 100.706 86.7693 101.52 86.7693Z" fill="#020064"/>
<path d="M115.023 83.7002H148.935" stroke="#020064" stroke-width="0.72" stroke-linecap="round" stroke-linejoin="round"/>
<path d="M101.52 105.716C102.334 105.716 103.115 105.393 103.69 104.817C104.266 104.242 104.589 103.461 104.589 102.647C104.589 101.833 104.266 101.053 103.69 100.477C103.115 99.9015 102.334 99.5781 101.52 99.5781C100.706 99.5781 99.9256 99.9015 99.3501 100.477C98.7745 101.053 98.4512 101.833 98.4512 102.647C98.4512 103.461 98.7745 104.242 99.3501 104.817C99.9256 105.393 100.706 105.716 101.52 105.716Z" fill="#020064"/>
<path d="M115.023 102.647H148.935" stroke="#020064" stroke-width="0.72" stroke-linecap="round" stroke-linejoin="round"/>
<path d="M101.52 124.665C102.334 124.665 103.115 124.342 103.69 123.766C104.266 123.191 104.589 122.41 104.589 121.596C104.589 120.782 104.266 120.002 103.69 119.426C103.115 118.851 102.334 118.527 101.52 118.527C100.706 118.527 99.9256 118.851 99.3501 119.426C98.7745 120.002 98.4512 120.782 98.4512 121.596C98.4512 122.41 98.7745 123.191 99.3501 123.766C99.9256 124.342 100.706 124.665 101.52 124.665Z" fill="#020064"/>
<path d="M115.023 121.596H148.935" stroke="#020064" stroke-width="0.72" stroke-linecap="round" stroke-linejoin="round"/>
<path d="M101.52 143.612C102.334 143.612 103.115 143.289 103.69 142.713C104.266 142.138 104.589 141.357 104.589 140.543C104.589 139.729 104.266 138.949 103.69 138.373C103.115 137.797 102.334 137.474 101.52 137.474C100.706 137.474 99.9256 137.797 99.3501 138.373C98.7745 138.949 98.4512 139.729 98.4512 140.543C98.4512 141.357 98.7745 142.138 99.3501 142.713C99.9256 143.289 100.706 143.612 101.52 143.612Z" fill="#020064"/>
<path d="M115.023 140.543H148.935" stroke="#020064" stroke-width="0.72" stroke-linecap="round" stroke-linejoin="round"/>
</svg>
